<svg version="1.1" xmlns="http://www.w3.org/2000/svg" viewBox="0 0 660.2312071844058 209.07524470078033" width="660.2312071844058" height="209.07524470078033">
  <!-- svg-source:excalidraw -->
  
  <defs>
    <style class="style-fonts">
      @font-face {
        font-family: "Virgil";
        src: url("https://excalidraw.com/Virgil.woff2");
      }
      @font-face {
        font-family: "Cascadia";
        src: url("https://excalidraw.com/Cascadia.woff2");
      }
    </style>
    
  </defs>
  <rect x="0" y="0" width="660.2312071844058" height="209.07524470078033" fill="#ffffff"></rect><g stroke-linecap="round" transform="translate(10 102.90007165863813) rotate(0 22.420410545519132 18.81146523483642)"><path d="M9.41 0 M9.41 0 C19.24 -0.62, 27.33 0.04, 35.44 0 M9.41 0 C14.47 0.51, 20.88 0.29, 35.44 0 M35.44 0 C41.93 0.83, 44.3 1.64, 44.84 9.41 M35.44 0 C41.78 0.88, 46.66 2.57, 44.84 9.41 M44.84 9.41 C44.46 13.86, 44.32 20.21, 44.84 28.22 M44.84 9.41 C44.03 16.07, 44.93 21.68, 44.84 28.22 M44.84 28.22 C46.82 32.64, 42.42 36.53, 35.44 37.62 M44.84 28.22 C43.11 32.19, 42.16 39.6, 35.44 37.62 M35.44 37.62 C30.89 39.22, 25.5 36.47, 9.41 37.62 M35.44 37.62 C27.36 37.3, 20.22 37.97, 9.41 37.62 M9.41 37.62 C2.6 37.47, 0.31 35.24, 0 28.22 M9.41 37.62 C3.87 36.45, -1.57 35.18, 0 28.22 M0 28.22 C0.92 21.38, -0.3 17.69, 0 9.41 M0 28.22 C-0.21 21.63, 0.38 14.42, 0 9.41 M0 9.41 C1.23 4.36, 2.28 1.68, 9.41 0 M0 9.41 C1.07 4.79, 2.48 2.1, 9.41 0" stroke="#1e1e1e" stroke-width="1" fill="none"></path></g><g stroke-linecap="round" transform="translate(13.108378227598791 161.4523142311075) rotate(0 22.420410545519132 18.81146523483642)"><path d="M9.41 0 M9.41 0 C17.82 1.62, 23.32 -1.2, 35.44 0 M9.41 0 C15.26 1.08, 22 0.04, 35.44 0 M35.44 0 C39.83 1.66, 44.36 4.16, 44.84 9.41 M35.44 0 C43.85 0.72, 45.17 2.48, 44.84 9.41 M44.84 9.41 C44.36 15.43, 46.8 20.6, 44.84 28.22 M44.84 9.41 C44.54 13.19, 45.11 17.65, 44.84 28.22 M44.84 28.22 C45.21 33.23, 43.61 38.79, 35.44 37.62 M44.84 28.22 C45.82 35.66, 42.77 39.45, 35.44 37.62 M35.44 37.62 C27.82 38.69, 19.71 38.4, 9.41 37.62 M35.44 37.62 C28.05 37.61, 20.79 37.25, 9.41 37.62 M9.41 37.62 C2.73 38.4, 0.9 36.22, 0 28.22 M9.41 37.62 C1.43 39.73, -1.92 34.61, 0 28.22 M0 28.22 C1.16 21.73, -1.18 17.94, 0 9.41 M0 28.22 C-0.64 22.83, 0.56 16.64, 0 9.41 M0 9.41 C0.29 4.76, 3.02 1.33, 9.41 0 M0 9.41 C0.38 1.1, 4.58 0.64, 9.41 0" stroke="#1e1e1e" stroke-width="1" fill="none"></path></g><g stroke-linecap="round"><g transform="translate(24.040402322164255 105.99865368407268) rotate(0 9.31929657006549 6.8241424261792645)"><path d="M0.03 0.91 C3.4 3.04, 16.88 10.18, 20.05 11.94 M-1.41 0.35 C1.82 2.73, 15.29 11.3, 19.1 13.3" stroke="#1e1e1e" stroke-width="1" fill="none"></path></g></g><mask></mask><g stroke-linecap="round"><g transform="translate(19.395090922953273 133.9981791099242) rotate(0 11.07066043416063 -7.617875558663741)"><path d="M1 0.84 C4.43 -1.9, 16.52 -13.36, 19.83 -16.07 M0.07 0.23 C3.94 -2.36, 18.73 -12.37, 22.07 -14.74" stroke="#1e1e1e" stroke-width="1" fill="none"></path></g></g><mask></mask><g stroke-linecap="round"><g transform="translate(22.575346517928324 134.7550518173632) rotate(0 1.072433102857019 -11.48014972006115)"><path d="M0.82 -0.99 C1.34 -5.02, 2.11 -20.52, 2.36 -24.06 M-0.21 1.1 C0.23 -2.8, 1.17 -18.74, 1.46 -22.91" stroke="#1e1e1e" stroke-width="1" fill="none"></path></g></g><mask></mask><g stroke-linecap="round" transform="translate(75.41630768735581 101.81710089902322) rotate(0 157.28027917427983 15.487460841617235)"><path d="M7.74 0 M7.74 0 C105.7 -0.06, 201.73 0.72, 306.82 0 M7.74 0 C98.13 0.53, 188.32 -0.35, 306.82 0 M306.82 0 C311.28 -1.26, 312.9 1.75, 314.56 7.74 M306.82 0 C314.1 1.26, 316.46 1.41, 314.56 7.74 M314.56 7.74 C313.52 13.13, 313.14 15.52, 314.56 23.23 M314.56 7.74 C314.71 11.81, 314.6 15.46, 314.56 23.23 M314.56 23.23 C316.48 28.12, 313.21 29.23, 306.82 30.97 M314.56 23.23 C315.51 30.24, 313.24 32.43, 306.82 30.97 M306.82 30.97 C238.26 30.73, 166.84 28.76, 7.74 30.97 M306.82 30.97 C205.17 30.83, 103.51 30.33, 7.74 30.97 M7.74 30.97 C2.65 31.81, 1.65 27.03, 0 23.23 M7.74 30.97 C0.99 33.07, -0.76 26.68, 0 23.23 M0 23.23 C0.11 17.59, -1.02 14.12, 0 7.74 M0 23.23 C0.52 17.93, 0.72 14.2, 0 7.74 M0 7.74 C-1.25 2.72, 2.22 -1.8, 7.74 0 M0 7.74 C-2.22 3.36, 2.42 2.13, 7.74 0" stroke="#1e1e1e" stroke-width="1" fill="none"></path></g><g transform="translate(171.71118017775507 10) rotate(0 36.989959716796875 12.5)"><text x="0" y="0" font-family="Virgil, Segoe UI Emoji" font-size="20px" fill="#1e1e1e" text-anchor="start" style="white-space: pre;" direction="ltr" dominant-baseline="text-before-edge">Timeline</text></g><g stroke-linecap="round"><g transform="translate(83.87686925636626 118.83461491844878) rotate(0 145.9605095878714 -1.5732489199166366)"><path d="M0.42 -0.48 C48.65 -0.94, 242.04 -2.31, 290.56 -2.67 M-0.81 -1.78 C47.67 -2.08, 244.13 -1.41, 292.74 -1.37" stroke="#1e1e1e" stroke-width="1" fill="none"></path></g></g><mask></mask><g stroke-linecap="round" transform="translate(110.72454747951042 104.46256904371944) rotate(0 2.128301786976067 11.964637575737243)"><path d="M-0.13 1.21 C-0.13 1.21, -0.13 1.21, -0.13 1.21 M-0.13 1.21 C-0.13 1.21, -0.13 1.21, -0.13 1.21 M0.27 6.86 C1.12 5.66, 3.61 3.16, 4.86 1.57 M0.27 6.86 C2.03 4.88, 3.42 2.52, 4.86 1.57 M0 13.25 C1.1 11.45, 4.01 9.78, 4.6 7.97 M0 13.25 C1.05 12.18, 2.3 10.73, 4.6 7.97 M-0.26 19.65 C0.61 18.24, 2.22 16.65, 4.99 13.61 M-0.26 19.65 C1.74 17.63, 3.83 15.15, 4.99 13.61 M1.45 23.79 C2.5 22.27, 3.6 21.61, 4.73 20.01 M1.45 23.79 C2.55 22.38, 3.66 21.44, 4.73 20.01" stroke="#a5d8ff" stroke-width="0.5" fill="none"></path><path d="M1.06 0 M1.06 0 C1.75 0.01, 2.06 0.07, 3.19 0 M1.06 0 C1.75 0.05, 2.32 -0.06, 3.19 0 M3.19 0 C3.14 0.52, 5.1 2.26, 4.26 1.06 M3.19 0 C2.54 0.42, 6.51 0.7, 4.26 1.06 M4.26 1.06 C2.53 6.02, 4.7 11.17, 4.26 22.87 M4.26 1.06 C4 6.65, 4.76 14.65, 4.26 22.87 M4.26 22.87 C3.04 24.99, 3.79 23.93, 3.19 23.93 M4.26 22.87 C2.19 23.78, 2.46 25.09, 3.19 23.93 M3.19 23.93 C2.46 23.83, 2.05 24.14, 1.06 23.93 M3.19 23.93 C2.41 23.95, 1.84 23.92, 1.06 23.93 M1.06 23.93 C-0.03 24.31, -0.53 22.16, 0 22.87 M1.06 23.93 C0.01 25.68, -1.01 21.71, 0 22.87 M0 22.87 C-0.11 15.96, -0.67 8.34, 0 1.06 M0 22.87 C-0.42 13.29, -0.4 5.41, 0 1.06 M0 1.06 C-0.74 0.78, -1.01 0.78, 1.06 0 M0 1.06 C-1.06 -0.25, 1.2 1.42, 1.06 0" stroke="#1e1e1e" stroke-width="1" fill="none"></path></g><g stroke-linecap="round" transform="translate(405.15014699613243 100.59552799172957) rotate(0 33.19866726039902 16.888069618772988)"><path d="M2.25 1.95 C2.25 1.95, 2.25 1.95, 2.25 1.95 M2.25 1.95 C2.25 1.95, 2.25 1.95, 2.25 1.95 M1.33 9.11 C2.99 7.94, 5.08 4.48, 9.2 0.05 M1.33 9.11 C3.66 7.26, 5.1 4.98, 9.2 0.05 M1.07 15.5 C4.85 11.71, 11.07 4.63, 14.19 0.41 M1.07 15.5 C4.15 11.85, 7.45 7.46, 14.19 0.41 M1.46 21.15 C6.59 13.55, 14.52 8.17, 19.18 0.77 M1.46 21.15 C7.59 14.28, 13.75 7.36, 19.18 0.77 M1.86 26.79 C10.7 18.86, 17.19 8.67, 24.82 0.38 M1.86 26.79 C8.73 18.63, 15.04 10.76, 24.82 0.38 M2.91 31.68 C12.02 20.55, 19.38 12.2, 29.81 0.74 M2.91 31.68 C10.71 21.82, 19.03 12.34, 29.81 0.74 M5.93 34.3 C12.68 25.04, 24.43 14.37, 35.45 0.34 M5.93 34.3 C12.85 26.08, 20.5 16.87, 35.45 0.34 M10.91 34.66 C15.92 27.08, 22.78 19.7, 40.44 0.7 M10.91 34.66 C21.98 22.61, 31.7 10.64, 40.44 0.7 M16.56 34.27 C27.59 21.72, 37.42 8.67, 45.42 1.06 M16.56 34.27 C27.55 22.13, 39.37 8.53, 45.42 1.06 M21.54 34.63 C34.85 22, 42.73 7.88, 51.07 0.67 M21.54 34.63 C29.01 25.38, 36.49 16.58, 51.07 0.67 M27.19 34.23 C32.64 27.4, 40.18 20.4, 56.05 1.03 M27.19 34.23 C36.7 23.96, 46.12 11.68, 56.05 1.03 M32.17 34.59 C39.04 27.17, 47.62 18.76, 61.7 0.63 M32.17 34.59 C41.33 24.75, 48.72 15.85, 61.7 0.63 M37.16 34.95 C45.41 24.01, 52.41 18.79, 64.72 3.26 M37.16 34.95 C46.9 23.84, 57.21 11.67, 64.72 3.26 M42.8 34.56 C47.92 28.82, 56.37 20.87, 67.73 5.88 M42.8 34.56 C47.11 28.06, 53.04 22.57, 67.73 5.88 M47.79 34.92 C52.76 29.84, 58.28 26.47, 67.47 12.28 M47.79 34.92 C51.56 29.41, 56.33 23.46, 67.47 12.28 M53.43 34.52 C57.43 28.53, 61.33 23.86, 67.21 18.68 M53.43 34.52 C56.88 29.73, 59.57 26.92, 67.21 18.68 M59.08 34.13 C62.7 30.25, 66.03 26.94, 67.61 24.32 M59.08 34.13 C61.12 32.17, 63.08 28.64, 67.61 24.32" stroke="#1e1e1e" stroke-width="0.5" fill="none"></path><path d="M8.44 0 M8.44 0 C18.94 1.69, 31.87 -0.16, 57.95 0 M8.44 0 C24.33 -0.85, 40.34 0.66, 57.95 0 M57.95 0 C63.94 0.05, 64.47 2.17, 66.4 8.44 M57.95 0 C61.62 -0.23, 64.55 3.93, 66.4 8.44 M66.4 8.44 C66.81 13.34, 65.89 20.84, 66.4 25.33 M66.4 8.44 C65.75 13.89, 66.15 17.89, 66.4 25.33 M66.4 25.33 C68.17 30.97, 65.41 34.56, 57.95 33.78 M66.4 25.33 C67.94 32.91, 61.54 35.7, 57.95 33.78 M57.95 33.78 C45.72 32.9, 36.75 34.59, 8.44 33.78 M57.95 33.78 C43.31 33.79, 29.61 34.35, 8.44 33.78 M8.44 33.78 C4.4 32.55, -0.32 29.47, 0 25.33 M8.44 33.78 C5.05 35.58, -1.82 30.6, 0 25.33 M0 25.33 C1.45 19.38, -0.12 15.58, 0 8.44 M0 25.33 C-0.61 18.6, 0.7 12.45, 0 8.44 M0 8.44 C-0.64 3.92, 1.35 0.6, 8.44 0 M0 8.44 C-0.5 3.53, 0.66 1.34, 8.44 0" stroke="#1e1e1e" stroke-width="1" fill="none"></path></g><g stroke-linecap="round"><g transform="translate(462.55089516645967 113.38634420753988) rotate(0 44.14222385601158 0.4537247669501312)"><path d="M0.09 -0.14 C14.97 0.12, 74.99 0.63, 89.61 0.67 M-1.32 -1.26 C13.43 -0.72, 73.76 1.78, 89 2.17" stroke="#1e1e1e" stroke-width="1" fill="none"></path></g><g transform="translate(462.55089516645967 113.38634420753988) rotate(0 44.14222385601158 0.4537247669501312)"><path d="M60.23 12.52 C69.68 6.47, 77.96 6, 88.05 1.91 M60.33 11.32 C70.6 8.88, 79.71 4.69, 89.86 1.99" stroke="#1e1e1e" stroke-width="1" fill="none"></path></g><g transform="translate(462.55089516645967 113.38634420753988) rotate(0 44.14222385601158 0.4537247669501312)"><path d="M60.94 -7.99 C70 -7.38, 78.05 -1.2, 88.05 1.91 M61.04 -9.19 C71.18 -4.7, 80.06 -1.97, 89.86 1.99" stroke="#1e1e1e" stroke-width="1" fill="none"></path></g></g><mask></mask><g transform="translate(574.4312804265933 104.94244683403736) rotate(0 37.89996337890625 12.5)"><text x="0" y="0" font-family="Virgil, Segoe UI Emoji" font-size="20px" fill="#1e1e1e" text-anchor="start" style="white-space: pre;" direction="ltr" dominant-baseline="text-before-edge">Seconds</text></g><g stroke-linecap="round" transform="translate(97.7906838763056 85.57121191547412) rotate(0 14.404124503337982 9.592501002235963)"><path d="M18.75 2.5 M18.75 2.5 C21.48 3.74, 23.15 6.47, 25.06 7.5 M18.75 2.5 C19.94 3.97, 21.64 4.84, 25.06 7.5 M25.06 7.5 C30.23 8.13, 29.4 11.49, 25.06 12.5 M25.06 7.5 C30.87 8.2, 30.85 11.79, 25.06 12.5 M25.06 12.5 C23.37 13.82, 21.94 14.03, 18.75 16.69 M25.06 12.5 C22.52 13.94, 20.27 15.3, 18.75 16.69 M18.75 16.69 C13.85 17.39, 15.02 17.75, 11.25 16.69 M18.75 16.69 C14.07 18.46, 16.47 19.93, 11.25 16.69 M11.25 16.69 C8.88 15.87, 8.11 14.53, 3.75 12.5 M11.25 16.69 C8.7 15.67, 6.92 14.09, 3.75 12.5 M3.75 12.5 C0.56 11.43, -1.37 11.63, 3.75 7.5 M3.75 12.5 C2.06 10.62, -1.61 11.32, 3.75 7.5 M3.75 7.5 C5.65 5.31, 8.16 4, 11.25 2.5 M3.75 7.5 C5.85 6.39, 8.03 4.84, 11.25 2.5 M11.25 2.5 C13.37 1.28, 16.86 -0.62, 18.75 2.5 M11.25 2.5 C15.57 -1.12, 14.87 -0.31, 18.75 2.5" stroke="#1e1e1e" stroke-width="1" fill="none"></path></g><g stroke-linecap="round" transform="translate(72.76958910241285 63.84060843882844) rotate(0 39.797706021059696 14.931930836120387)"><path d="M1.99 1.73 C1.99 1.73, 1.99 1.73, 1.99 1.73 M1.99 1.73 C1.99 1.73, 1.99 1.73, 1.99 1.73 M1.07 8.88 C3.76 6.21, 6.49 3.48, 8.29 0.58 M1.07 8.88 C3.56 6.17, 6.67 2.3, 8.29 0.58 M1.46 14.52 C4.87 11.14, 7.9 5.37, 13.27 0.94 M1.46 14.52 C5.1 8.86, 9.7 3.88, 13.27 0.94 M1.86 20.17 C8.44 12.68, 13.27 8.16, 18.92 0.54 M1.86 20.17 C8.84 12.42, 14.8 6.39, 18.92 0.54 M1.6 26.56 C8.96 18.28, 13.8 10, 23.9 0.9 M1.6 26.56 C11 16.36, 18.64 6.94, 23.9 0.9 M4.62 29.19 C12.39 19.46, 17.98 11.67, 29.55 0.51 M4.62 29.19 C13.44 19.62, 22.68 7.32, 29.55 0.51 M9.6 29.55 C16.42 24.71, 18.99 14.45, 34.53 0.87 M9.6 29.55 C18.35 19.46, 27.23 10.04, 34.53 0.87 M14.59 29.91 C22.91 21.51, 29.58 11.97, 39.52 1.23 M14.59 29.91 C23.06 19.5, 32.39 10.61, 39.52 1.23 M20.23 29.51 C26.79 19.85, 32.4 13.66, 45.16 0.83 M20.23 29.51 C27.81 21.16, 35.94 11.64, 45.16 0.83 M25.22 29.87 C36.62 19.4, 43.05 6.95, 50.15 1.19 M25.22 29.87 C33.57 19.6, 43.4 9.43, 50.15 1.19 M30.86 29.48 C41.03 19.15, 48.71 9.89, 55.79 0.8 M30.86 29.48 C39.2 19.81, 46.58 11.87, 55.79 0.8 M35.85 29.84 C42.83 20.22, 53.97 10.53, 60.78 1.16 M35.85 29.84 C41.39 22.5, 48.67 16.08, 60.78 1.16 M41.49 29.44 C47.77 20.86, 57.82 12.84, 66.42 0.77 M41.49 29.44 C48.68 20.36, 57.73 11.14, 66.42 0.77 M46.48 29.8 C53.38 18.64, 64.1 10.98, 71.41 1.13 M46.48 29.8 C54.31 20.02, 62.68 10.61, 71.41 1.13 M51.47 30.17 C57.39 21.02, 67.27 13.05, 76.4 1.49 M51.47 30.17 C57.84 24.51, 62.39 18.06, 76.4 1.49 M57.11 29.77 C64.8 20.08, 73.11 11.22, 79.42 4.11 M57.11 29.77 C64.25 22.41, 71.04 14.71, 79.42 4.11 M62.1 30.13 C68.75 24.12, 70.24 17.57, 79.16 10.51 M62.1 30.13 C68.42 24.49, 72.68 17.62, 79.16 10.51 M67.74 29.74 C70.59 26.91, 75.04 21.69, 79.55 16.15 M67.74 29.74 C72.86 23.92, 76.54 18.87, 79.55 16.15 M72.73 30.1 C73.56 28.07, 75.62 26.4, 79.29 22.55 M72.73 30.1 C74.85 27.26, 77.36 24.72, 79.29 22.55" stroke="#1e1e1e" stroke-width="0.5" fill="none"></path><path d="M7.47 0 M7.47 0 C23.49 1.8, 40.08 -0.01, 72.13 0 M7.47 0 C23.66 0.43, 42.7 0.06, 72.13 0 M72.13 0 C75.28 1.7, 77.93 1.98, 79.6 7.47 M72.13 0 C75.68 -1.61, 79.37 4.14, 79.6 7.47 M79.6 7.47 C79.04 10.74, 80.25 15.38, 79.6 22.4 M79.6 7.47 C79.68 13.18, 78.97 18, 79.6 22.4 M79.6 22.4 C79.16 27.6, 79.08 31.22, 72.13 29.86 M79.6 22.4 C78.79 29.4, 78.8 29.77, 72.13 29.86 M72.13 29.86 C45.62 30.43, 21.01 29.66, 7.47 29.86 M72.13 29.86 C58.38 31.46, 44.03 30.61, 7.47 29.86 M7.47 29.86 C2.08 31.36, 0.53 28.7, 0 22.4 M7.47 29.86 C4.02 30.65, 1.03 29.24, 0 22.4 M0 22.4 C0.51 18.12, 1.18 11.24, 0 7.47 M0 22.4 C-0.62 18.77, -0.87 14.09, 0 7.47 M0 7.47 C1.38 1.46, 3.64 -0.26, 7.47 0 M0 7.47 C-0.24 2.15, 0.94 -2.16, 7.47 0" stroke="#1e1e1e" stroke-width="1" fill="none"></path></g><g stroke-linecap="round"><g transform="translate(152.61331169665425 77.99648513698298) rotate(0 33.03937704976363 -0.1737026929865806)"><path d="M0.86 -0.75 C11.68 -0.71, 53.4 0.04, 64.05 0.07 M-0.15 1.48 C11.1 1.15, 55.57 -1.68, 66.23 -1.83" stroke="#1e1e1e" stroke-width="1" fill="none"></path></g><g transform="translate(152.61331169665425 77.99648513698298) rotate(0 33.03937704976363 -0.1737026929865806)"><path d="M37.25 7.92 C45.61 6.22, 50.88 5.21, 67.3 -0.38 M38.7 8.85 C45.19 6.29, 53.52 4.42, 66.9 -2.18" stroke="#1e1e1e" stroke-width="1" fill="none"></path></g><g transform="translate(152.61331169665425 77.99648513698298) rotate(0 33.03937704976363 -0.1737026929865806)"><path d="M36.38 -12.58 C44.92 -9.58, 50.39 -5.87, 67.3 -0.38 M37.83 -11.66 C44.46 -8.72, 53.02 -5.1, 66.9 -2.18" stroke="#1e1e1e" stroke-width="1" fill="none"></path></g></g><mask></mask><g transform="translate(231.15315290450087 64.52354611974806) rotate(0 98.37989044189453 12.5)"><text x="0" y="0" font-family="Virgil, Segoe UI Emoji" font-size="20px" fill="#1e1e1e" text-anchor="start" style="white-space: pre;" direction="ltr" dominant-baseline="text-before-edge">Tooltip Animation %</text></g><g stroke-linecap="round"><g transform="translate(28.59476882219542 187.87968815205159) rotate(0 0.012225533636126329 -7.455471034489051)"><path d="M0.93 0.83 C1.14 -1.76, 0.14 -12.9, 0.32 -15.74 M-0.05 0.22 C0.05 -2.18, -1.2 -11.76, -0.88 -14.35" stroke="#1e1e1e" stroke-width="1" fill="none"></path></g></g><mask></mask><g stroke-linecap="round"><g transform="translate(41.89371484340052 188.96175694130807) rotate(0 -0.5109248536887776 -8.787284768483687)"><path d="M-0.14 -0.29 C-0.12 -3.09, 0.62 -12.83, 0.66 -15.74 M-1.67 -1.48 C-1.8 -4.08, -0.14 -14.71, 0.03 -17.29" stroke="#1e1e1e" stroke-width="1" fill="none"></path></g></g><mask></mask><g stroke-linecap="round"><g transform="translate(44.324642068449634 137.12486983973486) rotate(0 0.28564400437409176 11.553345045574929)"><path d="M-0.57 -0.27 C-0.69 3.48, 0.14 19.2, -0.02 23.39 M1.34 -1.46 C1.02 2.36, -0.67 20.5, -0.77 24.57" stroke="#1e1e1e" stroke-width="1" fill="none"></path></g><g transform="translate(44.324642068449634 137.12486983973486) rotate(0 0.28564400437409176 11.553345045574929)"><path d="M-4.41 13.39 C-3.53 16.06, -0.82 22.36, 0.1 24.65 M-3.75 13.25 C-3.27 17.58, -1.9 21.8, -0.47 25.06" stroke="#1e1e1e" stroke-width="1" fill="none"></path></g><g transform="translate(44.324642068449634 137.12486983973486) rotate(0 0.28564400437409176 11.553345045574929)"><path d="M3.81 13.93 C1.71 16.37, 1.43 22.47, 0.1 24.65 M4.48 13.79 C1.87 17.86, 0.17 21.89, -0.47 25.06" stroke="#1e1e1e" stroke-width="1" fill="none"></path></g></g><mask></mask><g stroke-linecap="round"><g transform="translate(20.324642068449634 159.12486983973486) rotate(0 -0.9901304789868277 -12.85436392873521)"><path d="M-0.96 -0.39 C-1.36 -4.8, -2.42 -21.07, -2.71 -25.32 M0.73 -1.64 C0.76 -5.36, 0.38 -20.05, -0.37 -23.95" stroke="#1e1e1e" stroke-width="1" fill="none"></path></g><g transform="translate(20.324642068449634 159.12486983973486) rotate(0 -0.9901304789868277 -12.85436392873521)"><path d="M4.65 -13.39 C3.14 -16.48, 1.05 -18.82, -0.42 -24 M4.88 -12.79 C3.33 -16.69, 0.98 -20.94, -0.78 -23.65" stroke="#1e1e1e" stroke-width="1" fill="none"></path></g><g transform="translate(20.324642068449634 159.12486983973486) rotate(0 -0.9901304789868277 -12.85436392873521)"><path d="M-3.89 -12.55 C-3.09 -15.8, -2.86 -18.37, -0.42 -24 M-3.66 -11.94 C-1.85 -16.19, -0.84 -20.76, -0.78 -23.65" stroke="#1e1e1e" stroke-width="1" fill="none"></path></g></g><mask></mask></svg>