<svg version="1.1" xmlns="http://www.w3.org/2000/svg" viewBox="0 0 709.363849234784 453.57700186335296" width="709.363849234784" height="453.57700186335296">
  <!-- svg-source:excalidraw -->
  
  <defs>
    <style class="style-fonts">
      @font-face {
        font-family: "Virgil";
        src: url("https://excalidraw.com/Virgil.woff2");
      }
      @font-face {
        font-family: "Cascadia";
        src: url("https://excalidraw.com/Cascadia.woff2");
      }
    </style>
    
  </defs>
  <rect x="0" y="0" width="709.363849234784" height="453.57700186335296" fill="#ffffff"></rect><g stroke-linecap="round" transform="translate(10 10) rotate(0 344.681924617392 216.78850093167648)"><path d="M32 0 M32 0 C236.1 1.75, 441.35 1.96, 657.36 0 M32 0 C206.29 -0.63, 379.56 -0.6, 657.36 0 M657.36 0 C678.13 -0.44, 689.49 9.2, 689.36 32 M657.36 0 C680.88 -1.57, 690.16 10.17, 689.36 32 M689.36 32 C688.59 179.73, 688.56 325.32, 689.36 401.58 M689.36 32 C689.99 111.96, 689.25 192.7, 689.36 401.58 M689.36 401.58 C689.67 422.42, 679.98 433.38, 657.36 433.58 M689.36 401.58 C687.84 422.45, 678.63 433.82, 657.36 433.58 M657.36 433.58 C413.94 435.41, 170.24 435.97, 32 433.58 M657.36 433.58 C510.56 432.18, 364.08 432.68, 32 433.58 M32 433.58 C11.07 435.31, -1.89 422.53, 0 401.58 M32 433.58 C11.15 432.34, -0.53 424.44, 0 401.58 M0 401.58 C0.49 277.21, 1.18 154.69, 0 32 M0 401.58 C0.38 256.48, -0.27 112.97, 0 32 M0 32 C0.99 12.36, 12.5 -0.35, 32 0 M0 32 C-2.25 9.18, 10.48 -0.36, 32 0" stroke="#1e1e1e" stroke-width="1" fill="none"></path></g><g stroke-linecap="round" transform="translate(169.95991562929214 130.95504126672267) rotate(0 72.4120113820714 28.652972800175576)"><path d="M14.33 0 M14.33 0 C44.81 1.93, 73.94 2.51, 130.5 0 M14.33 0 C37.68 -0.48, 62.77 0.1, 130.5 0 M130.5 0 C138.92 1.36, 143.53 3.37, 144.82 14.33 M130.5 0 C139.84 0.2, 146.92 4.69, 144.82 14.33 M144.82 14.33 C143.79 27.2, 145.95 37.97, 144.82 42.98 M144.82 14.33 C144.13 25.46, 144.62 35.86, 144.82 42.98 M144.82 42.98 C146.81 52.64, 140.43 57.19, 130.5 57.31 M144.82 42.98 C146.81 50.59, 142.05 59.58, 130.5 57.31 M130.5 57.31 C85.18 57.61, 41.5 56.74, 14.33 57.31 M130.5 57.31 C91.58 56.79, 53.42 56.75, 14.33 57.31 M14.33 57.31 C3.62 57.42, 1.85 52.74, 0 42.98 M14.33 57.31 C5.36 57.14, 1.62 52.1, 0 42.98 M0 42.98 C0.88 32.65, 0.54 22.62, 0 14.33 M0 42.98 C-1.04 36.13, 0.44 28.69, 0 14.33 M0 14.33 C0.85 6.19, 3.96 0.81, 14.33 0 M0 14.33 C-0.96 5.89, 5.94 2.01, 14.33 0" stroke="#1e1e1e" stroke-width="1" fill="none"></path></g><g stroke-linecap="round"><g transform="translate(172.84418492809607 135.21040566847068) rotate(0 68.07182908952285 23.23391928842284)"><path d="M0.69 0.24 C23.58 7.86, 114.12 38.31, 136.55 46.2 M-0.4 -0.67 C22.49 7, 113.68 38.86, 136.14 47.14" stroke="#1e1e1e" stroke-width="1" fill="none"></path></g></g><mask></mask><g stroke-linecap="round"><g transform="translate(173.647983060937 185.75497926093658) rotate(0 67.25463172210277 -25.767567808364674)"><path d="M1.04 -1.13 C23.32 -9.58, 112.23 -42.13, 134.39 -50.43 M0.12 0.89 C22.17 -7.96, 111.2 -43.98, 133.32 -52.42" stroke="#1e1e1e" stroke-width="1" fill="none"></path></g></g><mask></mask><g stroke-linecap="round" transform="translate(47.78049467813423 370.60745610975937) rotate(0 18.100061352966065 15.186549514713306)"><path d="M7.59 0 M7.59 0 C15.05 0.45, 21.77 0.38, 28.61 0 M7.59 0 C12.98 0.25, 17.83 0.47, 28.61 0 M28.61 0 C34.03 0.79, 37.17 3.11, 36.2 7.59 M28.61 0 C34.82 1.66, 37.2 2.86, 36.2 7.59 M36.2 7.59 C37.66 11.09, 35.06 18, 36.2 22.78 M36.2 7.59 C36.15 11.21, 35.79 15.58, 36.2 22.78 M36.2 22.78 C37.47 27.88, 33.22 30.41, 28.61 30.37 M36.2 22.78 C35.66 29.51, 31.93 31.72, 28.61 30.37 M28.61 30.37 C20.92 30.37, 13.02 30.2, 7.59 30.37 M28.61 30.37 C24.77 31.16, 18.83 30.9, 7.59 30.37 M7.59 30.37 C1.62 28.83, 0.96 29.3, 0 22.78 M7.59 30.37 C0.35 30.99, -0.71 29.96, 0 22.78 M0 22.78 C-0.13 16.11, -1.34 10.21, 0 7.59 M0 22.78 C-0.32 17.68, 0.52 11.86, 0 7.59 M0 7.59 C1.52 3.96, 2.86 0.67, 7.59 0 M0 7.59 C1.73 1.06, 2.86 0.31, 7.59 0" stroke="#1e1e1e" stroke-width="1" fill="none"></path></g><g stroke-linecap="round"><g transform="translate(59.115351501364444 373.10895021280885) rotate(0 7.605721237502166 4.992611653108952)"><path d="M0.21 0.64 C3.03 2.05, 13.55 7.43, 16.35 8.99 M-1.14 -0.06 C1.58 1.42, 12.52 8.15, 15.49 10.05" stroke="#1e1e1e" stroke-width="1" fill="none"></path></g></g><mask></mask><g stroke-linecap="round"><g transform="translate(55.36517836521023 395.71304691446903) rotate(0 8.180755381295853 -5.688154762865679)"><path d="M0.17 -0.91 C3.06 -3.12, 14.67 -10.69, 17.57 -12.6 M-1.2 1.22 C1.59 -0.83, 13.99 -9.01, 17.06 -11.02" stroke="#1e1e1e" stroke-width="1" fill="none"></path></g></g><mask></mask><g stroke-linecap="round"><g transform="translate(57.9326077737976 396.32407240899465) rotate(0 1.2295817791414834 -10.19995266912997)"><path d="M0.84 0.07 C1.25 -2.86, 2.31 -15.46, 2.64 -18.51 M-0.18 -0.94 C0.13 -4.17, 1.66 -17.25, 2.12 -20.47" stroke="#1e1e1e" stroke-width="1" fill="none"></path></g></g><mask></mask><g stroke-linecap="round" transform="translate(100.59126637304792 369.7331707280223) rotate(0 126.97281777630269 12.503071291482456)"><path d="M6.25 0 M6.25 0 C96 0.01, 185.7 -1.06, 247.69 0 M6.25 0 C88.62 0.02, 170.52 -0.46, 247.69 0 M247.69 0 C252.44 1.02, 254.42 3.9, 253.95 6.25 M247.69 0 C249.6 -1.84, 254.59 1.21, 253.95 6.25 M253.95 6.25 C253.4 10.3, 254.04 16.99, 253.95 18.75 M253.95 6.25 C253.77 10.48, 253.44 14.16, 253.95 18.75 M253.95 18.75 C255.48 21.79, 250.27 25.24, 247.69 25.01 M253.95 18.75 C254.14 23.21, 251.86 23.16, 247.69 25.01 M247.69 25.01 C153.02 25.7, 56.95 25.83, 6.25 25.01 M247.69 25.01 C193.09 26.69, 139.8 27.24, 6.25 25.01 M6.25 25.01 C3.89 23.06, -0.79 22.55, 0 18.75 M6.25 25.01 C0.97 22.75, -1.07 24.11, 0 18.75 M0 18.75 C0.41 15.76, -0.38 11.94, 0 6.25 M0 18.75 C0.45 13.71, 0.07 9.55, 0 6.25 M0 6.25 C0.29 2.32, 0.31 -0.91, 6.25 0 M0 6.25 C0.74 -0.15, 2.9 -1.84, 6.25 0" stroke="#1e1e1e" stroke-width="1" fill="none"></path></g><g stroke-linecap="round"><g transform="translate(107.42150184838545 383.4714583120608) rotate(0 117.42909942675726 -1.4501156068668024)"><path d="M0.22 0.47 C39.38 0.14, 196.69 -1.2, 235.98 -1.43 M-1.13 -0.32 C37.85 -1.09, 195.89 -2.96, 235.34 -3.37" stroke="#1e1e1e" stroke-width="1" fill="none"></path></g></g><mask></mask><g stroke-linecap="round" transform="translate(179.76351466976746 371.8688647033441) rotate(0 1.7181841003171598 9.65908602552895)"><path d="M1.15 -0.33 C1.15 -0.33, 1.15 -0.33, 1.15 -0.33 M1.15 -0.33 C1.15 -0.33, 1.15 -0.33, 1.15 -0.33 M0.88 6.07 C2.45 4.39, 3.19 2.62, 4.82 1.54 M0.88 6.07 C1.98 4.7, 3.17 3.54, 4.82 1.54 M-0.03 13.22 C0.57 11.44, 2.08 10.87, 4.56 7.94 M-0.03 13.22 C1.74 11.95, 3.11 10.16, 4.56 7.94 M0.36 18.86 C0.77 18.19, 2.33 16.54, 3.64 15.09 M0.36 18.86 C1.67 17.36, 2.42 16.32, 3.64 15.09" stroke="#a5d8ff" stroke-width="0.5" fill="none"></path><path d="M0.86 0 M0.86 0 C1.38 0.03, 1.71 -0.06, 2.58 0 M0.86 0 C1.5 0.07, 2.02 0.03, 2.58 0 M2.58 0 C4.65 -1.28, 3.73 0.55, 3.44 0.86 M2.58 0 C3.49 0.27, 1.4 -0.76, 3.44 0.86 M3.44 0.86 C1.86 5.77, 3.84 12.5, 3.44 18.46 M3.44 0.86 C4.3 6.67, 3.1 11.11, 3.44 18.46 M3.44 18.46 C4.95 20.71, 4.8 18.63, 2.58 19.32 M3.44 18.46 C3.87 18.13, 3.18 20.6, 2.58 19.32 M2.58 19.32 C1.94 19.28, 1.31 19.27, 0.86 19.32 M2.58 19.32 C1.87 19.24, 1.31 19.31, 0.86 19.32 M0.86 19.32 C1.43 19.78, -0.09 17.51, 0 18.46 M0.86 19.32 C-1.81 20.13, -1.57 18.31, 0 18.46 M0 18.46 C-0.32 14.53, -0.04 9.35, 0 0.86 M0 18.46 C0.56 13.03, 0.22 7.32, 0 0.86 M0 0.86 C-1.14 -0.42, 0 1.68, 0.86 0 M0 0.86 C-1.41 -1.95, 2.4 -1.85, 0.86 0" stroke="#1e1e1e" stroke-width="1" fill="none"></path></g><g stroke-linecap="round" transform="translate(366.78633490316884 368.74699143731505) rotate(0 26.80137872720718 15)"><path d="M7.5 0 M7.5 0 C22.39 0.67, 34.68 0.38, 46.1 0 M7.5 0 C20.06 -1.15, 34.86 -0.73, 46.1 0 M46.1 0 C53.06 0.86, 53.09 1.54, 53.6 7.5 M46.1 0 C49.4 0.08, 55.06 2.54, 53.6 7.5 M53.6 7.5 C54.69 10.53, 54.48 16.98, 53.6 22.5 M53.6 7.5 C53.55 11.24, 53.48 14.2, 53.6 22.5 M53.6 22.5 C55.53 29.44, 52.68 31.17, 46.1 30 M53.6 22.5 C52.38 28.24, 50.05 28.23, 46.1 30 M46.1 30 C33.2 29.02, 21.06 31.44, 7.5 30 M46.1 30 C37.79 28.95, 29.98 30.45, 7.5 30 M7.5 30 C2.71 29.89, -0.79 28.15, 0 22.5 M7.5 30 C4.12 29.29, 1.75 29.15, 0 22.5 M0 22.5 C-1.01 17.97, 0.15 13.22, 0 7.5 M0 22.5 C0.38 17.09, 0.4 12.55, 0 7.5 M0 7.5 C-1.06 3.15, 2.44 -0.14, 7.5 0 M0 7.5 C1.36 3.48, 4.49 1.71, 7.5 0" stroke="#1e1e1e" stroke-width="1" fill="none"></path></g><g transform="translate(384.1304153515674 374.08280299984244) rotate(0 9.457298278808594 9.66418843747283)"><text x="9.457298278808594" y="0" font-family="Virgil, Segoe UI Emoji" font-size="15.462701499956422px" fill="#1e1e1e" text-anchor="middle" style="white-space: pre;" direction="ltr" dominant-baseline="text-before-edge">3s</text></g><g stroke-linecap="round" transform="translate(169.32196970904465 356.6178182353142) rotate(0 11.628490777047148 7.74405340688827)"><path d="M15 2 M15 2 C17.35 2.65, 17.95 4.8, 20.26 6 M15 2 C16.33 2.87, 17.55 4.09, 20.26 6 M20.26 6 C24.52 8.04, 22.81 8.04, 20.26 10 M20.26 6 C22.72 9.67, 21.52 9.34, 20.26 10 M20.26 10 C18.33 11.33, 16.35 12.59, 15 13.49 M20.26 10 C19.38 11, 17.81 11.69, 15 13.49 M15 13.49 C11.09 13.95, 12.96 16.95, 9 13.49 M15 13.49 C9.82 16.1, 11.29 17.61, 9 13.49 M9 13.49 C6.56 11.77, 3.67 10.42, 3 10 M9 13.49 C6.75 12.37, 5.02 10.92, 3 10 M3 10 C1.52 9.43, 0.33 8.67, 3 6 M3 10 C1.73 6.53, 0.33 8.31, 3 6 M3 6 C4.55 5.03, 6.07 3.79, 9 2 M3 6 C4.33 5.07, 5.87 4.37, 9 2 M9 2 C13.73 1.48, 11 -0.12, 15 2 M9 2 C13.75 1.93, 13.9 -0.79, 15 2" stroke="#1e1e1e" stroke-width="1" fill="none"></path></g><g stroke-linecap="round" transform="translate(149.32532404584924 337.0450852779695) rotate(0 32.12880153224728 15)"><path d="M2 1.74 C2 1.74, 2 1.74, 2 1.74 M2 1.74 C2 1.74, 2 1.74, 2 1.74 M1.08 8.89 C3.88 5.77, 5.72 5.15, 8.3 0.59 M1.08 8.89 C2.95 6.93, 4.66 4.4, 8.3 0.59 M1.47 14.53 C7.07 8.1, 11.28 2.85, 13.28 0.95 M1.47 14.53 C3.19 11.66, 6.4 9.22, 13.28 0.95 M1.87 20.17 C8.35 11.61, 13.42 3.98, 18.93 0.55 M1.87 20.17 C7.45 13.61, 14.55 6.07, 18.93 0.55 M1.61 26.57 C10.48 18.39, 16.92 7.53, 23.91 0.91 M1.61 26.57 C7.67 18.05, 15.87 9.49, 23.91 0.91 M3.97 29.95 C13.44 20.15, 21.24 11.51, 29.56 0.52 M3.97 29.95 C11.98 19.62, 22 10.43, 29.56 0.52 M9.61 29.56 C18.47 18.56, 29.91 8.57, 34.54 0.88 M9.61 29.56 C18.71 18.85, 27.67 9.59, 34.54 0.88 M14.6 29.92 C18 24.49, 24.98 18.46, 39.53 1.24 M14.6 29.92 C21.76 21.19, 30.05 11.25, 39.53 1.24 M20.24 29.52 C25.33 23, 31.05 15.23, 45.17 0.84 M20.24 29.52 C29.35 20.39, 37.38 10.97, 45.17 0.84 M25.23 29.88 C33.07 21.72, 35.49 17.82, 50.16 1.2 M25.23 29.88 C31.01 22.64, 36.35 16.65, 50.16 1.2 M30.87 29.49 C40.52 19.14, 48.11 7.65, 55.8 0.81 M30.87 29.49 C35.41 23.67, 42.11 16.79, 55.8 0.81 M35.86 29.85 C44.21 22.68, 50.27 14.05, 60.79 1.17 M35.86 29.85 C46.19 19.31, 55.57 8.01, 60.79 1.17 M40.85 30.21 C47.75 21.39, 58.49 9.33, 63.81 3.79 M40.85 30.21 C46.58 23.8, 51.05 17.45, 63.81 3.79 M46.49 29.81 C52.75 22.91, 55.6 19.02, 66.83 6.42 M46.49 29.81 C53.11 20.7, 60.86 12.89, 66.83 6.42 M51.48 30.17 C55.87 26.52, 60.64 20.39, 66.57 12.81 M51.48 30.17 C57.15 24.87, 61.68 17.63, 66.57 12.81 M57.12 29.78 C58.41 27.29, 62.45 26, 66.3 19.21 M57.12 29.78 C59.75 26.39, 63.72 22.14, 66.3 19.21" stroke="#ffffff" stroke-width="0.5" fill="none"></path><path d="M7.5 0 M7.5 0 C23.04 1.62, 34.81 0.15, 56.76 0 M7.5 0 C20.43 0.14, 35.41 -1.22, 56.76 0 M56.76 0 C62.16 -0.64, 65.93 4.42, 64.26 7.5 M56.76 0 C60.47 -0.4, 62.54 3.46, 64.26 7.5 M64.26 7.5 C64.35 10.58, 65.72 16.02, 64.26 22.5 M64.26 7.5 C64.81 13.49, 64.64 17.8, 64.26 22.5 M64.26 22.5 C63.78 27.14, 61.86 29.65, 56.76 30 M64.26 22.5 C65.31 29.37, 62.12 28.69, 56.76 30 M56.76 30 C38.67 29.35, 20.95 31.05, 7.5 30 M56.76 30 C40.6 30.84, 22.63 30.37, 7.5 30 M7.5 30 C2.65 31.46, 1.29 27.37, 0 22.5 M7.5 30 C1.64 30.42, -1.13 25.8, 0 22.5 M0 22.5 C0.72 18.97, 0.7 14.02, 0 7.5 M0 22.5 C0.01 17.3, -0.41 12.04, 0 7.5 M0 7.5 C1.75 1.43, 1.64 0.11, 7.5 0 M0 7.5 C0.55 0.9, 2.63 1.71, 7.5 0" stroke="#1e1e1e" stroke-width="1" fill="none"></path></g><g transform="translate(163.78084676950277 342.29990210561164) rotate(0 17.67327880859375 9.745183172357883)"><text x="17.67327880859375" y="0" font-family="Virgil, Segoe UI Emoji" font-size="15.592293075772764px" fill="#1e1e1e" text-anchor="middle" style="white-space: pre;" direction="ltr" dominant-baseline="text-before-edge">25%</text></g><g transform="translate(516.6282236938481 27.85889611929224) rotate(0 42.45800541439917 7.135327126378115)"><text x="0" y="0" font-family="Virgil, Segoe UI Emoji" font-size="11.416523402205087px" fill="#1e1e1e" text-anchor="start" style="white-space: pre;" direction="ltr" dominant-baseline="text-before-edge">Animation Name</text></g><g stroke-linecap="round"><g transform="translate(470.73295972719586 88.2311578094509) rotate(0 92.80485602273393 0.9657630361759857)"><path d="M0.68 0.11 C31.49 0.52, 153.01 1.39, 183.67 1.63 M-0.42 -0.87 C30.89 -0.26, 155.28 2.25, 186.03 2.8" stroke="#1e1e1e" stroke-width="1" fill="none"></path></g></g><mask></mask><g transform="translate(636.17530223603 84.44728155682606) rotate(0 0.9600777591581391 -4.37940787976504)" stroke="none"><path fill="#1e1e1e" d="M -1.39,-0.23 Q -1.39,-0.23 -1.30,-1.38 -1.20,-2.53 -0.97,-3.63 -0.73,-4.72 -0.03,-6.56 0.65,-8.41 0.70,-8.56 0.75,-8.71 0.84,-8.85 0.92,-8.98 1.04,-9.09 1.15,-9.20 1.29,-9.28 1.42,-9.36 1.58,-9.40 1.73,-9.45 1.89,-9.45 2.04,-9.46 2.20,-9.43 2.35,-9.40 2.50,-9.33 2.64,-9.26 2.76,-9.16 2.89,-9.06 2.98,-8.94 3.08,-8.81 3.14,-8.67 3.20,-8.52 3.23,-8.36 3.25,-8.21 3.24,-8.05 3.23,-7.89 3.23,-7.90 3.23,-7.91 3.16,-7.71 3.09,-7.51 2.96,-7.35 2.82,-7.18 2.64,-7.06 2.47,-6.95 2.26,-6.90 2.05,-6.84 1.84,-6.86 1.63,-6.88 1.43,-6.96 1.24,-7.04 1.08,-7.18 0.92,-7.32 0.82,-7.51 0.71,-7.69 0.67,-7.90 0.63,-8.11 0.66,-8.32 0.68,-8.53 0.78,-8.72 0.87,-8.91 1.02,-9.06 1.17,-9.22 1.36,-9.31 1.55,-9.41 1.76,-9.44 1.97,-9.47 2.18,-9.43 2.39,-9.39 2.57,-9.28 2.76,-9.18 2.90,-9.02 3.04,-8.86 3.13,-8.67 3.21,-8.48 3.23,-8.26 3.25,-8.05 3.20,-7.85 3.15,-7.64 3.04,-7.46 2.92,-7.28 2.76,-7.15 2.59,-7.01 2.39,-6.94 2.19,-6.86 1.98,-6.86 1.77,-6.85 1.57,-6.91 1.36,-6.97 1.19,-7.10 1.02,-7.22 0.89,-7.39 0.77,-7.56 0.70,-7.77 0.64,-7.97 0.65,-8.19 0.65,-8.41 0.70,-8.56 0.75,-8.71 0.84,-8.85 0.92,-8.98 1.04,-9.09 1.15,-9.20 1.29,-9.28 1.42,-9.36 1.58,-9.40 1.73,-9.45 1.89,-9.45 2.04,-9.46 2.20,-9.43 2.35,-9.40 2.50,-9.33 2.64,-9.26 2.76,-9.16 2.89,-9.06 2.98,-8.94 3.08,-8.81 3.14,-8.67 3.20,-8.52 3.23,-8.36 3.25,-8.21 3.24,-8.05 3.23,-7.89 2.96,-6.65 2.70,-5.40 2.34,-3.70 1.98,-1.99 1.68,-0.87 1.39,0.23 1.34,0.40 1.30,0.56 1.21,0.71 1.12,0.86 1.00,0.98 0.88,1.10 0.74,1.19 0.59,1.28 0.43,1.33 0.27,1.39 0.10,1.40 -0.06,1.41 -0.23,1.38 -0.40,1.35 -0.56,1.29 -0.71,1.22 -0.85,1.11 -0.99,1.01 -1.09,0.88 -1.20,0.74 -1.27,0.59 -1.34,0.43 -1.38,0.27 -1.41,0.10 -1.40,-0.06 -1.39,-0.23 -1.39,-0.23 L -1.39,-0.23 Z"></path></g><g transform="translate(637.0511849468402 81.23009785739441) rotate(0 2.6950019013944484 0.2695001901395244)" stroke="none"><path d="M0 0 C0 0, 0 0, 0 0 M0 0 C0 0, 0 0, 0 0" stroke="#1e1e1e" stroke-width="0.5" fill="none"></path><path fill="#1e1e1e" d="M 1.15,-0.71 Q 1.15,-0.71 1.38,-0.54 1.61,-0.37 3.39,-1.03 5.18,-1.68 5.33,-1.72 5.49,-1.76 5.64,-1.76 5.80,-1.76 5.96,-1.72 6.11,-1.68 6.25,-1.61 6.39,-1.54 6.51,-1.43 6.63,-1.33 6.72,-1.20 6.81,-1.07 6.86,-0.92 6.92,-0.77 6.94,-0.61 6.96,-0.46 6.94,-0.30 6.92,-0.14 6.86,0.00 6.81,0.14 6.72,0.27 6.63,0.41 6.51,0.51 6.39,0.62 6.25,0.69 6.11,0.76 6.30,0.65 6.48,0.55 6.30,0.65 6.12,0.76 5.91,0.80 5.70,0.85 5.49,0.82 5.28,0.80 5.09,0.70 4.90,0.61 4.74,0.47 4.59,0.32 4.49,0.13 4.40,-0.05 4.36,-0.26 4.33,-0.47 4.37,-0.68 4.41,-0.89 4.51,-1.08 4.61,-1.26 4.76,-1.41 4.92,-1.55 5.11,-1.64 5.31,-1.72 5.52,-1.75 5.73,-1.77 5.94,-1.72 6.15,-1.67 6.33,-1.56 6.51,-1.45 6.64,-1.28 6.78,-1.12 6.85,-0.92 6.93,-0.72 6.94,-0.51 6.95,-0.30 6.89,-0.09 6.83,0.10 6.71,0.27 6.59,0.45 6.42,0.58 6.25,0.70 6.04,0.77 5.84,0.83 5.63,0.83 5.42,0.83 5.22,0.76 5.02,0.69 4.85,0.56 4.68,0.43 4.56,0.25 4.45,0.07 4.39,-0.12 4.34,-0.33 4.35,-0.54 4.37,-0.75 4.45,-0.95 4.53,-1.15 4.85,-1.41 5.18,-1.68 5.33,-1.72 5.49,-1.76 5.64,-1.76 5.80,-1.76 5.96,-1.72 6.11,-1.68 6.25,-1.61 6.39,-1.54 6.51,-1.43 6.63,-1.33 6.72,-1.20 6.81,-1.07 6.86,-0.92 6.92,-0.77 6.94,-0.61 6.96,-0.46 6.94,-0.30 6.92,-0.14 6.86,0.00 6.81,0.14 6.72,0.27 6.63,0.41 6.51,0.51 6.39,0.62 6.25,0.69 6.11,0.76 4.77,1.26 3.42,1.76 2.37,2.08 1.31,2.40 0.25,2.03 -0.81,1.65 -0.98,1.18 -1.15,0.71 -1.22,0.57 -1.29,0.42 -1.32,0.26 -1.35,0.09 -1.35,-0.06 -1.34,-0.22 -1.29,-0.38 -1.25,-0.54 -1.16,-0.68 -1.08,-0.82 -0.96,-0.94 -0.85,-1.06 -0.71,-1.14 -0.57,-1.23 -0.41,-1.28 -0.26,-1.33 -0.09,-1.34 0.06,-1.36 0.22,-1.33 0.38,-1.30 0.54,-1.24 0.69,-1.17 0.82,-1.07 0.95,-0.97 1.05,-0.84 1.15,-0.71 1.15,-0.71 L 1.15,-0.71 Z"></path></g><g transform="translate(638.3649863159136 76.24429610838843) rotate(0 7.3102047153892045 -5.221613706092967)" stroke="none"><path d="M4.03 -5.77 C4.03 -5.77, 4.03 -5.77, 4.03 -5.77 M4.03 -5.77 C4.03 -5.77, 4.03 -5.77, 4.03 -5.77 M3.13 0.79 C3.67 -2.28, 7.82 -4.03, 14.6 -10.16 M2.1 1.58 C6.29 -2.73, 10.27 -7.77, 14.51 -10.93" stroke="#1e1e1e" stroke-width="0.5" fill="none"></path><path fill="#1e1e1e" d="M -1.31,-0.48 Q -1.31,-0.48 -1.29,-0.86 -1.28,-1.25 -0.69,-2.26 -0.10,-3.27 0.46,-4.24 1.04,-5.22 1.95,-6.40 2.86,-7.57 3.90,-8.65 4.93,-9.74 5.84,-10.61 6.76,-11.49 7.93,-12.45 9.11,-13.41 10.26,-14.06 11.40,-14.70 12.48,-14.78 13.55,-14.85 14.55,-14.13 15.55,-13.41 15.98,-12.44 16.42,-11.47 16.50,-10.26 16.58,-9.05 16.30,-7.87 16.02,-6.69 15.53,-5.57 15.05,-4.44 14.41,-3.27 13.78,-2.10 13.01,-1.09 12.24,-0.09 11.36,0.81 10.48,1.72 8.67,2.67 6.85,3.62 6.65,3.69 6.46,3.77 6.24,3.77 6.03,3.78 5.83,3.72 5.62,3.65 5.45,3.53 5.28,3.40 5.16,3.23 5.03,3.06 4.97,2.86 4.91,2.65 4.91,2.44 4.92,2.23 4.99,2.03 5.07,1.83 5.20,1.66 5.33,1.50 5.51,1.38 5.69,1.27 5.90,1.22 6.10,1.17 6.32,1.19 6.53,1.20 6.72,1.29 6.92,1.37 7.08,1.51 7.23,1.66 7.34,1.84 7.44,2.03 7.48,2.23 7.52,2.44 7.49,2.65 7.46,2.86 7.37,3.05 7.27,3.24 7.12,3.39 6.97,3.54 6.78,3.64 6.59,3.73 6.38,3.76 6.17,3.79 5.96,3.75 5.75,3.71 5.57,3.60 5.38,3.50 5.24,3.34 5.10,3.18 5.02,2.99 4.93,2.79 4.92,2.58 4.90,2.37 4.95,2.16 5.00,1.96 5.12,1.78 5.23,1.60 5.40,1.47 5.56,1.33 5.56,1.33 5.56,1.33 7.00,-0.20 8.44,-1.74 9.29,-2.74 10.14,-3.75 10.68,-4.67 11.22,-5.59 11.73,-6.76 12.24,-7.94 11.89,-9.03 11.55,-10.13 10.54,-9.28 9.54,-8.43 8.72,-7.64 7.90,-6.86 6.96,-5.86 6.03,-4.87 4.81,-3.47 3.60,-2.07 2.69,-1.09 1.78,-0.10 1.55,0.19 1.31,0.48 1.23,0.63 1.16,0.78 1.04,0.91 0.93,1.04 0.79,1.14 0.66,1.23 0.50,1.29 0.34,1.36 0.17,1.38 0.00,1.40 -0.15,1.38 -0.32,1.36 -0.48,1.30 -0.64,1.24 -0.78,1.15 -0.92,1.05 -1.03,0.93 -1.15,0.80 -1.22,0.65 -1.30,0.50 -1.35,0.34 -1.39,0.17 -1.39,0.00 -1.39,-0.15 -1.35,-0.32 -1.31,-0.48 -1.31,-0.48 L -1.31,-0.48 Z"></path></g><g transform="translate(646.9553098416083 67.14858666975624) rotate(0 2.1139096712270202 2.711871552205821)" stroke="none"><path d="M-0.08 -0.07 C-0.08 -0.07, -0.08 -0.07, -0.08 -0.07 M-0.08 -0.07 C-0.08 -0.07, -0.08 -0.07, -0.08 -0.07 M2.94 2.56 C2.94 2.56, 2.94 2.56, 2.94 2.56 M2.94 2.56 C2.94 2.56, 2.94 2.56, 2.94 2.56" stroke="#1e1e1e" stroke-width="0.5" fill="none"></path><path fill="#1e1e1e" d="M 1.06,-0.95 Q 1.06,-0.95 1.92,-0.15 2.77,0.63 3.94,2.42 5.11,4.21 5.21,4.40 5.31,4.59 5.34,4.80 5.37,5.01 5.34,5.22 5.30,5.43 5.20,5.61 5.10,5.80 4.94,5.95 4.78,6.09 4.59,6.18 4.40,6.26 4.18,6.28 3.97,6.30 3.77,6.26 3.56,6.21 3.38,6.10 3.20,5.98 3.06,5.82 2.93,5.66 2.85,5.46 2.77,5.26 2.76,5.05 2.76,4.84 2.81,4.63 2.87,4.43 3.00,4.25 3.12,4.08 3.29,3.95 3.46,3.83 3.66,3.76 3.86,3.70 4.07,3.70 4.29,3.70 4.49,3.77 4.69,3.84 4.86,3.97 5.02,4.10 5.14,4.28 5.26,4.46 5.31,4.66 5.37,4.87 5.35,5.08 5.34,5.29 5.26,5.49 5.18,5.68 5.04,5.84 4.90,6.00 4.71,6.11 4.53,6.22 4.32,6.26 4.11,6.31 3.90,6.28 3.69,6.25 3.50,6.16 3.31,6.07 3.16,5.92 3.00,5.78 3.00,5.78 3.00,5.78 1.66,4.30 0.32,2.82 -0.37,1.89 -1.06,0.95 -1.16,0.81 -1.26,0.67 -1.32,0.51 -1.39,0.34 -1.41,0.17 -1.43,0.00 -1.41,-0.16 -1.39,-0.33 -1.33,-0.49 -1.27,-0.66 -1.17,-0.80 -1.07,-0.94 -0.94,-1.06 -0.81,-1.17 -0.66,-1.25 -0.51,-1.33 -0.34,-1.38 -0.17,-1.42 -0.00,-1.42 0.16,-1.42 0.33,-1.38 0.50,-1.34 0.65,-1.26 0.80,-1.18 0.93,-1.06 1.06,-0.95 1.06,-0.95 L 1.06,-0.95 Z"></path></g><g transform="translate(638.4828752716004 75.30103693147157) rotate(0 2.2823451622069797 2.0044356809469264)" stroke="none"><path d="M-0.14 -0.12 C-0.14 -0.12, -0.14 -0.12, -0.14 -0.12 M-0.14 -0.12 C-0.14 -0.12, -0.14 -0.12, -0.14 -0.12 M2.88 2.5 C2.88 2.5, 2.88 2.5, 2.88 2.5 M2.88 2.5 C2.88 2.5, 2.88 2.5, 2.88 2.5" stroke="#1e1e1e" stroke-width="0.5" fill="none"></path><path fill="#1e1e1e" d="M 0.92,-1.11 Q 0.92,-1.11 2.01,-0.38 3.09,0.34 4.21,1.65 5.33,2.95 5.47,3.11 5.60,3.28 5.67,3.48 5.74,3.68 5.75,3.89 5.75,4.11 5.69,4.31 5.63,4.51 5.50,4.68 5.38,4.85 5.20,4.98 5.03,5.10 4.83,5.16 4.62,5.22 4.41,5.22 4.20,5.21 4.00,5.14 3.80,5.06 3.63,4.93 3.47,4.79 3.36,4.61 3.24,4.44 3.19,4.23 3.14,4.02 3.16,3.81 3.18,3.60 3.26,3.40 3.35,3.21 3.49,3.05 3.63,2.89 3.82,2.79 4.00,2.69 4.21,2.65 4.42,2.61 4.63,2.64 4.84,2.67 5.03,2.76 5.22,2.86 5.37,3.01 5.52,3.16 5.62,3.35 5.71,3.54 5.74,3.75 5.76,3.96 5.72,4.17 5.68,4.38 5.58,4.57 5.47,4.75 5.31,4.89 5.15,5.03 4.96,5.11 4.76,5.20 4.55,5.21 4.34,5.23 4.13,5.18 3.93,5.13 3.75,5.01 3.57,4.90 3.57,4.90 3.57,4.90 2.23,3.94 0.89,2.98 -0.01,2.04 -0.92,1.11 -1.04,0.98 -1.16,0.85 -1.25,0.70 -1.34,0.55 -1.38,0.38 -1.43,0.21 -1.43,0.04 -1.44,-0.13 -1.40,-0.30 -1.37,-0.47 -1.29,-0.63 -1.21,-0.78 -1.10,-0.92 -0.99,-1.05 -0.85,-1.16 -0.71,-1.26 -0.54,-1.33 -0.38,-1.39 -0.21,-1.42 -0.04,-1.44 0.13,-1.43 0.30,-1.41 0.47,-1.36 0.63,-1.30 0.78,-1.20 0.92,-1.11 0.92,-1.11 L 0.92,-1.11 Z"></path></g><g transform="translate(490.5814548305556 57.8052882181546) rotate(0 28.583291265216303 12.09780129258479)"><text x="0" y="0" font-family="Virgil, Segoe UI Emoji" font-size="19.35648206813581px" fill="#1e1e1e" text-anchor="start" style="white-space: pre;" direction="ltr" dominant-baseline="text-before-edge">fadein</text></g><g transform="translate(530.6077466703158 124.16678334590415) rotate(0 28.47848243793146 7.135327126378115)"><text x="0" y="0" font-family="Virgil, Segoe UI Emoji" font-size="11.416523402205087px" fill="#1e1e1e" text-anchor="start" style="white-space: pre;" direction="ltr" dominant-baseline="text-before-edge">Properties</text></g><g transform="translate(453.90992502935603 246.8208937614536) rotate(0 20.783756813793843 7.135327126378115)"><text x="0" y="0" font-family="Virgil, Segoe UI Emoji" font-size="11.416523402205089px" fill="#1e1e1e" text-anchor="start" style="white-space: pre;" direction="ltr" dominant-baseline="text-before-edge">Opacity</text></g><g transform="translate(453.90992502935603 193.6128866816448) rotate(0 14.767257168340961 7.135327126378115)"><text x="0" y="0" font-family="Virgil, Segoe UI Emoji" font-size="11.416523402205087px" fill="#1e1e1e" text-anchor="start" style="white-space: pre;" direction="ltr" dominant-baseline="text-before-edge">Scale</text></g><g transform="translate(453.90992502935603 220.5333831701828) rotate(0 20.412718932210623 7.135327126378115)"><text x="0" y="0" font-family="Virgil, Segoe UI Emoji" font-size="11.416523402205085px" fill="#1e1e1e" text-anchor="start" style="white-space: pre;" direction="ltr" dominant-baseline="text-before-edge">Rotate</text></g><g transform="translate(453.90992502935603 168.02807037476487) rotate(0 28.27298902334519 7.135327126378115)"><text x="0" y="0" font-family="Virgil, Segoe UI Emoji" font-size="11.416523402205087px" fill="#1e1e1e" text-anchor="start" style="white-space: pre;" direction="ltr" dominant-baseline="text-before-edge">Translate</text></g><g stroke-linecap="round" transform="translate(557.2106972809905 195.45734262521728) rotate(0 4.982846821055659 4.465138257786521)"><path d="M1.81 1.57 C1.81 1.57, 1.81 1.57, 1.81 1.57 M1.81 1.57 C1.81 1.57, 1.81 1.57, 1.81 1.57 M2.97 7.35 C4.45 4.43, 5.22 3.31, 7.65 0.7 M2.24 7.58 C4.05 4.85, 6.72 2.57, 7.65 1.16 M5.66 10 C7.18 8.94, 7.38 6.89, 11.17 3.12 M5.55 10.03 C6.2 8.51, 7.71 7.45, 10.85 3.66" stroke="#a5d8ff" stroke-width="0.5" fill="none"></path><path d="M5.11 -0.21 C6.34 -0.34, 8.53 0.55, 9.19 1.12 C9.85 1.69, 8.91 2.19, 9.08 3.22 C9.25 4.25, 10.7 6.33, 10.21 7.32 C9.71 8.31, 7.15 9.05, 6.09 9.19 C5.03 9.32, 4.66 8.69, 3.83 8.12 C3.01 7.56, 1.91 6.39, 1.14 5.79 C0.38 5.2, -0.88 5.29, -0.76 4.57 C-0.63 3.85, 0.8 2.24, 1.9 1.48 C2.99 0.71, 5 0.12, 5.81 -0.01 C6.63 -0.14, 6.72 0.6, 6.79 0.72 M7.17 0.59 C8.11 0.68, 7.88 1.31, 8.29 1.88 C8.69 2.44, 9.55 2.82, 9.61 3.99 C9.66 5.16, 9.18 8, 8.62 8.9 C8.05 9.79, 7.5 9.68, 6.21 9.37 C4.93 9.05, 1.83 7.58, 0.89 7.01 C-0.04 6.43, 0.48 6.6, 0.6 5.9 C0.72 5.21, 1.1 3.64, 1.61 2.86 C2.13 2.09, 2.67 1.6, 3.7 1.26 C4.73 0.91, 7.51 0.89, 7.82 0.8 C8.14 0.71, 5.99 0.69, 5.61 0.71" stroke="#1e1e1e" stroke-width="1" fill="none"></path></g><g stroke-linecap="round" transform="translate(546.1130375359511 198.03856310669698) rotate(0 47.673632910175115 2.2462532282827397)"><path d="M1.3 -0.2 C1.3 -0.2, 1.3 -0.2, 1.3 -0.2 M1.3 -0.2 C1.3 -0.2, 1.3 -0.2, 1.3 -0.2 M1.69 5.44 C3.62 3.02, 4.28 2.43, 6.28 0.16 M1.69 5.44 C3.04 3.86, 4.6 2.35, 6.28 0.16 M7.33 5.05 C9.03 3.63, 10.37 1.25, 11.93 -0.23 M7.33 5.05 C8.71 3.86, 10.18 2.25, 11.93 -0.23 M12.32 5.41 C13.75 4.58, 14.83 3.08, 16.91 0.13 M12.32 5.41 C13.72 3.55, 15.41 1.58, 16.91 0.13 M17.96 5.02 C20.25 2.41, 21.14 1.02, 22.56 -0.27 M17.96 5.02 C19.01 3.57, 20.16 2.38, 22.56 -0.27 M22.95 5.38 C24.31 4.29, 25.22 1.62, 27.54 0.09 M22.95 5.38 C24.74 3.72, 26.41 1.65, 27.54 0.09 M28.59 4.98 C29.75 3.46, 31.22 2.33, 33.19 -0.3 M28.59 4.98 C29.63 3.48, 31.42 2.11, 33.19 -0.3 M33.58 5.34 C34.57 3.74, 37.17 1.8, 38.17 0.06 M33.58 5.34 C35.32 3.77, 36.57 1.28, 38.17 0.06 M39.22 4.95 C41.38 2.58, 42.87 1.09, 43.82 -0.34 M39.22 4.95 C40.73 3.01, 42.65 0.8, 43.82 -0.34 M44.21 5.31 C45.74 3.21, 46.39 1.47, 48.8 0.02 M44.21 5.31 C45.9 3.55, 47.57 0.99, 48.8 0.02 M49.85 4.91 C50.56 3.37, 52.27 2.34, 54.45 -0.37 M49.85 4.91 C51.29 3.14, 52.6 0.98, 54.45 -0.37 M54.84 5.27 C56.29 3.44, 58.27 1.62, 59.43 -0.01 M54.84 5.27 C56.35 3.53, 57.61 2.13, 59.43 -0.01 M60.48 4.88 C62.4 3.33, 63.92 1.43, 64.42 0.35 M60.48 4.88 C61.26 4.21, 61.92 2.92, 64.42 0.35 M65.47 5.24 C66.38 4.6, 67.76 2.63, 70.06 -0.05 M65.47 5.24 C66.96 3.58, 67.68 2.23, 70.06 -0.05 M71.11 4.84 C72.44 4.11, 72.78 2.68, 75.05 0.31 M71.11 4.84 C72.31 3.56, 72.91 2.7, 75.05 0.31 M76.1 5.2 C76.97 3.33, 77.9 3.35, 80.69 -0.08 M76.1 5.2 C77.77 3.62, 79.32 1.54, 80.69 -0.08 M81.74 4.81 C83.15 3.61, 84.22 2.18, 85.68 0.28 M81.74 4.81 C82.99 3.53, 83.95 2.27, 85.68 0.28 M86.73 5.17 C87.91 4.12, 88.27 3.41, 91.32 -0.11 M86.73 5.17 C87.61 3.63, 89.03 3.13, 91.32 -0.11 M91.72 5.53 C92.6 3.68, 94.64 2.78, 95.65 1 M91.72 5.53 C92.45 4.59, 93.74 3.09, 95.65 1" stroke="#e9ecef" stroke-width="0.5" fill="none"></path><path d="M1.12 0 M1.12 0 C27.89 -0.81, 51.41 1.27, 94.22 0 M1.12 0 C29.88 0.09, 58.88 -0.24, 94.22 0 M94.22 0 C96.78 1.19, 94.62 1.7, 95.35 1.12 M94.22 0 C93.38 -0.24, 96.47 -1.35, 95.35 1.12 M95.35 1.12 C95.38 1.7, 95.42 2.22, 95.35 3.37 M95.35 1.12 C95.42 1.72, 95.32 2.16, 95.35 3.37 M95.35 3.37 C96.27 3.67, 96.84 3.5, 94.22 4.49 M95.35 3.37 C93.66 5.03, 93.17 6.01, 94.22 4.49 M94.22 4.49 C58.57 3.04, 26.26 5.18, 1.12 4.49 M94.22 4.49 C71.46 5.45, 48.67 5.34, 1.12 4.49 M1.12 4.49 C1.37 6.18, 1.19 5.26, 0 3.37 M1.12 4.49 C-1.07 5.36, -1.98 4.93, 0 3.37 M0 3.37 C-0.03 2.64, -0.2 1.96, 0 1.12 M0 3.37 C-0.09 2.96, -0.1 2.39, 0 1.12 M0 1.12 C1.67 -1.36, 2.19 -0.67, 1.12 0 M0 1.12 C-1.16 2.66, 2.33 -0.68, 1.12 0" stroke="#1e1e1e" stroke-width="1" fill="none"></path></g><g stroke-linecap="round" transform="translate(557.2106972809905 248.20888316603987) rotate(0 4.982846821055659 4.465138257786521)"><path d="M1.69 1.47 C1.69 1.47, 1.69 1.47, 1.69 1.47 M1.69 1.47 C1.69 1.47, 1.69 1.47, 1.69 1.47 M0.94 8.03 C3.25 5.52, 5.51 3.56, 6.53 1.88 M1.7 8.04 C3.72 5.48, 5.43 2.79, 6.8 2.04 M3.76 10.77 C6.78 7.83, 7.15 7.33, 9.62 5.11 M4.64 10.79 C6.67 8.24, 7.94 6.32, 9.74 4.22" stroke="#a5d8ff" stroke-width="0.5" fill="none"></path><path d="M3.64 -0.51 C4.64 -0.57, 7.77 0.62, 8.71 1.33 C9.64 2.04, 9 3, 9.24 3.73 C9.48 4.47, 10.42 5.11, 10.16 5.76 C9.9 6.41, 8.89 6.96, 7.68 7.63 C6.48 8.29, 4.04 9.75, 2.93 9.74 C1.82 9.73, 1.52 8.51, 1.02 7.56 C0.51 6.62, -0.17 5.04, -0.09 4.07 C-0.02 3.09, 0.5 2.36, 1.47 1.71 C2.44 1.07, 4.83 0.53, 5.73 0.19 C6.63 -0.15, 6.86 -0.41, 6.85 -0.31 M5.23 -1.19 C6.48 -0.92, 8 1.44, 8.98 2.41 C9.97 3.37, 11.3 3.98, 11.15 4.61 C11 5.24, 8.83 5.4, 8.09 6.21 C7.34 7.01, 7.41 8.96, 6.69 9.44 C5.97 9.91, 4.71 9.44, 3.74 9.08 C2.78 8.71, 1.27 8.13, 0.88 7.24 C0.48 6.36, 1.31 4.78, 1.37 3.76 C1.42 2.74, 0.66 1.71, 1.2 1.12 C1.73 0.53, 3.63 0.23, 4.57 0.23 C5.51 0.22, 6.49 0.85, 6.84 1.08" stroke="#1e1e1e" stroke-width="1" fill="none"></path></g><g stroke-linecap="round" transform="translate(546.1130375359511 250.79010364751957) rotate(0 47.673632910175115 2.2462532282827397)"><path d="M1.3 -0.2 C1.3 -0.2, 1.3 -0.2, 1.3 -0.2 M1.3 -0.2 C1.3 -0.2, 1.3 -0.2, 1.3 -0.2 M1.69 5.44 C2.77 4.6, 3.64 3.07, 6.28 0.16 M1.69 5.44 C3.15 4.04, 4.31 2.31, 6.28 0.16 M7.33 5.05 C8.7 3.18, 9.82 1.74, 11.93 -0.23 M7.33 5.05 C8.77 2.88, 10.8 1.29, 11.93 -0.23 M12.32 5.41 C14.43 4.02, 15.9 1.07, 16.91 0.13 M12.32 5.41 C14.15 3.92, 15.6 2.25, 16.91 0.13 M17.96 5.02 C18.67 3.5, 20.5 2.38, 22.56 -0.27 M17.96 5.02 C19.21 3.25, 20.59 2.13, 22.56 -0.27 M22.95 5.38 C25.19 3.71, 26.69 1.71, 27.54 0.09 M22.95 5.38 C24.43 3.05, 26.64 1.26, 27.54 0.09 M28.59 4.98 C29.52 3.8, 31.38 1.97, 33.19 -0.3 M28.59 4.98 C30.15 3.32, 31.27 1.39, 33.19 -0.3 M33.58 5.34 C35.52 4.2, 36.01 2.06, 38.17 0.06 M33.58 5.34 C35.73 3.3, 37.47 1.46, 38.17 0.06 M39.22 4.95 C40.96 4.19, 41.41 1.8, 43.82 -0.34 M39.22 4.95 C40.68 3.59, 41.77 1.79, 43.82 -0.34 M44.21 5.31 C45.98 4.74, 46.18 2.75, 48.8 0.02 M44.21 5.31 C45.85 3.08, 47.95 1.01, 48.8 0.02 M49.85 4.91 C51.39 3.86, 52.83 1.79, 54.45 -0.37 M49.85 4.91 C51.65 3.31, 53.08 1.49, 54.45 -0.37 M54.84 5.27 C56.61 3.25, 57.53 1.63, 59.43 -0.01 M54.84 5.27 C56.5 3.37, 57.56 2.36, 59.43 -0.01 M60.48 4.88 C61.18 3.56, 62.91 1.87, 64.42 0.35 M60.48 4.88 C61.86 3.4, 63.31 1.33, 64.42 0.35 M65.47 5.24 C67.04 2.79, 68.95 1.58, 70.06 -0.05 M65.47 5.24 C66.33 4.25, 67.91 3.05, 70.06 -0.05 M71.11 4.84 C72.08 3.24, 73.51 2.25, 75.05 0.31 M71.11 4.84 C71.76 4.01, 72.66 2.85, 75.05 0.31 M76.1 5.2 C77.27 4.76, 78.71 3.41, 80.69 -0.08 M76.1 5.2 C77.82 3.3, 79.62 1.54, 80.69 -0.08 M81.74 4.81 C83.07 3.45, 84.45 1.82, 85.68 0.28 M81.74 4.81 C82.6 3.47, 84.1 2.28, 85.68 0.28 M86.73 5.17 C87.63 3.64, 89.92 1.64, 91.32 -0.11 M86.73 5.17 C87.84 4.19, 88.55 2.67, 91.32 -0.11 M91.72 5.53 C92.4 4.09, 93.38 2.64, 95.65 1 M91.72 5.53 C92.96 4.3, 94.48 2.71, 95.65 1" stroke="#e9ecef" stroke-width="0.5" fill="none"></path><path d="M1.12 0 M1.12 0 C26.64 -1.64, 53.12 -0.75, 94.22 0 M1.12 0 C36.54 0.24, 69.79 0.31, 94.22 0 M94.22 0 C93.59 -0.21, 96.32 -1.13, 95.35 1.12 M94.22 0 C94.5 2.15, 95.98 0.5, 95.35 1.12 M95.35 1.12 C95.17 1.63, 95.45 2.53, 95.35 3.37 M95.35 1.12 C95.4 1.98, 95.45 2.83, 95.35 3.37 M95.35 3.37 C93.88 4.91, 93.41 5.81, 94.22 4.49 M95.35 3.37 C96.98 3.29, 95.49 3.21, 94.22 4.49 M94.22 4.49 C73.02 4.38, 54.62 5.44, 1.12 4.49 M94.22 4.49 C61.07 5.81, 27.52 5.53, 1.12 4.49 M1.12 4.49 C-0.88 5.24, -1.72 4.82, 0 3.37 M1.12 4.49 C1.55 3.56, 1.79 3.75, 0 3.37 M0 3.37 C-0.16 2.59, -0.07 1.71, 0 1.12 M0 3.37 C0.11 2.42, 0.12 1.63, 0 1.12 M0 1.12 C-1.01 2.36, 2.07 -0.59, 1.12 0 M0 1.12 C-0.84 -1.29, -1.17 -0.71, 1.12 0" stroke="#1e1e1e" stroke-width="1" fill="none"></path></g><g stroke-linecap="round" transform="translate(557.2106972809905 218.39042342867333) rotate(0 4.982846821055659 4.465138257786521)"><path d="M1.58 1.38 C1.58 1.38, 1.58 1.38, 1.58 1.38 M1.58 1.38 C1.58 1.38, 1.58 1.38, 1.58 1.38 M2.88 6.43 C3.7 4.94, 6.57 2.04, 7.96 0.85 M1.83 6.62 C4.12 4.93, 6.1 2.63, 8.29 -0.16 M4.3 10.5 C6.83 8.16, 9.32 4.84, 10.92 3.3 M4.79 9.68 C7.2 6.86, 9.43 4.89, 10.56 2.93" stroke="#a5d8ff" stroke-width="0.5" fill="none"></path><path d="M3.14 0.66 C4.05 0.19, 6.55 -0.28, 7.69 -0.11 C8.83 0.07, 9.79 0.6, 10 1.71 C10.21 2.82, 9.3 5.4, 8.95 6.54 C8.61 7.69, 8.67 8.2, 7.92 8.58 C7.17 8.96, 5.53 8.93, 4.47 8.83 C3.41 8.73, 2.22 8.61, 1.55 7.99 C0.87 7.36, 0.41 6.15, 0.42 5.05 C0.42 3.95, 0.92 2.16, 1.57 1.39 C2.22 0.62, 3.84 0.76, 4.32 0.44 C4.79 0.12, 4.51 -0.5, 4.43 -0.52 M4.21 0.8 C4.9 0.07, 4.59 -1.02, 5.5 -0.71 C6.41 -0.4, 8.77 1.6, 9.67 2.65 C10.57 3.7, 11.03 4.58, 10.9 5.59 C10.76 6.6, 9.6 8.05, 8.85 8.69 C8.11 9.34, 7.75 9.51, 6.44 9.47 C5.13 9.42, 2.2 9.04, 0.99 8.41 C-0.22 7.78, -0.96 6.52, -0.82 5.69 C-0.68 4.86, 1.02 4.12, 1.85 3.43 C2.69 2.73, 4.17 2.13, 4.18 1.51 C4.19 0.89, 2.05 -0.06, 1.94 -0.31" stroke="#1e1e1e" stroke-width="1" fill="none"></path></g><g stroke-linecap="round" transform="translate(546.1130375359511 220.97164391015303) rotate(0 47.673632910175115 2.2462532282827397)"><path d="M1.3 -0.2 C1.3 -0.2, 1.3 -0.2, 1.3 -0.2 M1.3 -0.2 C1.3 -0.2, 1.3 -0.2, 1.3 -0.2 M1.69 5.44 C3.34 3.86, 5.16 1.9, 6.28 0.16 M1.69 5.44 C3.53 3.56, 4.87 1.46, 6.28 0.16 M7.33 5.05 C9.15 4.11, 10.16 1.65, 11.93 -0.23 M7.33 5.05 C8.64 3.9, 9.63 2.72, 11.93 -0.23 M12.32 5.41 C14.21 3, 15.87 2.07, 16.91 0.13 M12.32 5.41 C13.69 3.27, 15.7 1.34, 16.91 0.13 M17.96 5.02 C18.9 3.46, 20.31 2.29, 22.56 -0.27 M17.96 5.02 C19.13 3.69, 19.52 3.1, 22.56 -0.27 M22.95 5.38 C25.13 3.71, 26.46 1.16, 27.54 0.09 M22.95 5.38 C23.83 4.45, 24.91 2.77, 27.54 0.09 M28.59 4.98 C30.02 3.87, 31.68 2.11, 33.19 -0.3 M28.59 4.98 C30.08 3.65, 31.4 2.12, 33.19 -0.3 M33.58 5.34 C36.02 2.67, 36.67 1.87, 38.17 0.06 M33.58 5.34 C34.75 3.79, 36.38 2.51, 38.17 0.06 M39.22 4.95 C41.11 2.96, 42.46 0.9, 43.82 -0.34 M39.22 4.95 C40.73 2.65, 42.39 1.36, 43.82 -0.34 M44.21 5.31 C46.62 2.89, 47.41 0.88, 48.8 0.02 M44.21 5.31 C45.19 4.1, 46.44 2.98, 48.8 0.02 M49.85 4.91 C51.56 2.36, 52.48 1.73, 54.45 -0.37 M49.85 4.91 C51.32 3.27, 52.82 1.86, 54.45 -0.37 M54.84 5.27 C56.07 3.28, 58 2.96, 59.43 -0.01 M54.84 5.27 C55.9 4.38, 56.75 2.7, 59.43 -0.01 M60.48 4.88 C62.29 3.05, 62.87 1.58, 64.42 0.35 M60.48 4.88 C62.3 3.18, 63.53 1.3, 64.42 0.35 M65.47 5.24 C66.13 3.29, 67.41 2.12, 70.06 -0.05 M65.47 5.24 C67.3 3.22, 68.74 1.08, 70.06 -0.05 M71.11 4.84 C71.78 3.42, 73.32 1.74, 75.05 0.31 M71.11 4.84 C72.19 3.17, 74.07 1.86, 75.05 0.31 M76.1 5.2 C78.24 3.61, 79.37 1.25, 80.69 -0.08 M76.1 5.2 C77.56 3.59, 78.92 2.17, 80.69 -0.08 M81.74 4.81 C83.09 3.26, 84.49 1.02, 85.68 0.28 M81.74 4.81 C82.9 3.32, 84.21 1.92, 85.68 0.28 M86.73 5.17 C87.49 4.03, 90.29 2.26, 91.32 -0.11 M86.73 5.17 C88.17 3.47, 90.16 1.4, 91.32 -0.11 M91.72 5.53 C93.05 4.57, 93.28 2.98, 95.65 1 M91.72 5.53 C93.18 3.7, 95.04 1.95, 95.65 1" stroke="#e9ecef" stroke-width="0.5" fill="none"></path><path d="M1.12 0 M1.12 0 C26.16 0.45, 49.12 1.82, 94.22 0 M1.12 0 C33.92 -0.72, 68.59 -1.37, 94.22 0 M94.22 0 C94.56 1.87, 95.9 0.48, 95.35 1.12 M94.22 0 C94.45 0.5, 93.77 -1.51, 95.35 1.12 M95.35 1.12 C95.57 1.65, 95.47 2.33, 95.35 3.37 M95.35 1.12 C95.29 1.79, 95.28 2.45, 95.35 3.37 M95.35 3.37 C96.77 3.4, 95.42 3.37, 94.22 4.49 M95.35 3.37 C93.43 5.39, 95.53 3.31, 94.22 4.49 M94.22 4.49 C69.11 6.23, 42.56 5.83, 1.12 4.49 M94.22 4.49 C57.8 5.4, 21.77 5.37, 1.12 4.49 M1.12 4.49 C1.4 3.68, 1.56 3.79, 0 3.37 M1.12 4.49 C1 2.37, 1.75 2.27, 0 3.37 M0 3.37 C0.18 2.53, 0.02 2.3, 0 1.12 M0 3.37 C-0.08 3, 0.08 2.38, 0 1.12 M0 1.12 C-0.73 -1.08, -0.97 -0.61, 1.12 0 M0 1.12 C1.32 -1.73, -0.61 -1.53, 1.12 0" stroke="#1e1e1e" stroke-width="1" fill="none"></path></g><g transform="translate(531.9566072458136 246.09330300090414) rotate(0 3.9272824825376347 7.135327126378115)"><text x="0" y="0" font-family="Virgil, Segoe UI Emoji" font-size="11.416523402205087px" fill="#1e1e1e" text-anchor="start" style="white-space: pre;" direction="ltr" dominant-baseline="text-before-edge">0</text></g><g transform="translate(531.9566072458136 218.7602279406724) rotate(0 3.9272824825376347 7.135327126378115)"><text x="0" y="0" font-family="Virgil, Segoe UI Emoji" font-size="11.416523402205087px" fill="#1e1e1e" text-anchor="start" style="white-space: pre;" direction="ltr" dominant-baseline="text-before-edge">0</text></g><g transform="translate(650.962307333909 246.4067400060817) rotate(0 1.5469383983918306 7.135327126378115)"><text x="0" y="0" font-family="Virgil, Segoe UI Emoji" font-size="11.416523402205087px" fill="#1e1e1e" text-anchor="start" style="white-space: pre;" direction="ltr" dominant-baseline="text-before-edge">1</text></g><g transform="translate(536.4940053555723 167.7023490211527) rotate(0 3.4135380584267523 7.135327126378115)"><text x="0" y="0" font-family="Virgil, Segoe UI Emoji" font-size="11.416523402205087px" fill="#1e1e1e" text-anchor="start" style="white-space: pre;" direction="ltr" dominant-baseline="text-before-edge">X</text></g><g transform="translate(577.4912404405408 166.96487492152983) rotate(0 2.945460773138734 7.135327126378115)"><text x="0" y="0" font-family="Virgil, Segoe UI Emoji" font-size="11.416523402205087px" fill="#1e1e1e" text-anchor="start" style="white-space: pre;" direction="ltr" dominant-baseline="text-before-edge">Y</text></g><g transform="translate(617.9739771840253 165.3065736015701) rotate(0 4.549480917529991 7.135327126378115)"><text x="0" y="0" font-family="Virgil, Segoe UI Emoji" font-size="11.416523402205087px" fill="#1e1e1e" text-anchor="start" style="white-space: pre;" direction="ltr" dominant-baseline="text-before-edge">Z</text></g><g transform="translate(650.962307333909 214.40495839109144) rotate(0 11.467886956971029 7.135327126378115)"><text x="0" y="0" font-family="Virgil, Segoe UI Emoji" font-size="11.416523402205087px" fill="#1e1e1e" text-anchor="start" style="white-space: pre;" direction="ltr" dominant-baseline="text-before-edge">360</text></g><g stroke-linecap="round"><g transform="translate(549.5654762270025 181.0016233991778) rotate(0 7.456570818770729 -0.3088530474149138)"><path d="M0.42 0.48 C3.06 0.55, 13.32 0.58, 15.73 0.52 M-0.82 -0.32 C1.69 -0.59, 12.46 -0.9, 14.9 -1.17" stroke="#1e1e1e" stroke-width="1" fill="none"></path></g></g><mask></mask><g stroke-linecap="round"><g transform="translate(586.5065520309946 180.13497214620793) rotate(0 10.975904905146649 -0.19263581038899247)"><path d="M0.21 0.82 C3.6 0.86, 17.12 0.76, 20.71 0.71 M-1.13 0.21 C2.61 -0.16, 19.36 -1.46, 23.08 -1.17" stroke="#1e1e1e" stroke-width="1" fill="none"></path></g></g><mask></mask><g stroke-linecap="round"><g transform="translate(631.1391189297764 178.69953710112577) rotate(0 9.270852706144524 -0.47466714346091976)"><path d="M-0.64 0.46 C2.52 0.41, 16.08 0.61, 19.18 0.53 M1.23 -0.34 C4.25 -0.84, 15.24 -1.71, 18.44 -1.45" stroke="#1e1e1e" stroke-width="1" fill="none"></path></g></g><mask></mask><g transform="translate(531.9566072458136 194.49206172900858) rotate(0 3.9272824825376347 7.135327126378115)"><text x="0" y="0" font-family="Virgil, Segoe UI Emoji" font-size="11.416523402205087px" fill="#1e1e1e" text-anchor="start" style="white-space: pre;" direction="ltr" dominant-baseline="text-before-edge">0</text></g><g stroke-linecap="round" transform="translate(453.84004112629975 278.28227516259585) rotate(0 115.44480282441293 74.66949258569616)"><path d="M7.86 8.16 C7.86 8.16, 7.86 8.16, 7.86 8.16 M7.86 8.16 C7.86 8.16, 7.86 8.16, 7.86 8.16 M3.66 19.09 C9.32 15.38, 11.09 8.28, 18.1 2.48 M3.66 19.09 C7.25 14.22, 13.01 9.95, 18.1 2.48 M2.75 26.24 C11.36 17.25, 18.32 9, 24.4 1.33 M2.75 26.24 C6.94 21.87, 12.62 15.16, 24.4 1.33 M2.48 32.64 C10.42 24.15, 14.26 15.51, 30.7 0.18 M2.48 32.64 C12.22 22.39, 21.65 10.7, 30.7 0.18 M2.88 38.28 C12.12 29.13, 16.28 21.67, 34.37 2.05 M2.88 38.28 C10.83 28.14, 19.37 19.21, 34.37 2.05 M2.62 44.68 C17.27 28.89, 27.32 15.42, 39.36 2.41 M2.62 44.68 C14.96 29.27, 28.66 14.48, 39.36 2.41 M2.36 51.07 C17.37 29.89, 34.13 14.25, 45 2.02 M2.36 51.07 C15.3 37.39, 27.96 22.27, 45 2.02 M2.75 56.72 C14.52 45.32, 24.43 32.72, 49.99 2.38 M2.75 56.72 C12.85 44.36, 24.82 31.54, 49.99 2.38 M2.49 63.11 C21.14 42.43, 38.94 20.06, 55.63 1.98 M2.49 63.11 C16.3 48.39, 30.42 31.25, 55.63 1.98 M2.88 68.76 C20.79 48.93, 36.21 29.97, 60.62 2.34 M2.88 68.76 C17.02 53.87, 30.2 37.04, 60.62 2.34 M2.62 75.16 C22.92 48.45, 48.09 22.62, 66.26 1.95 M2.62 75.16 C20.45 54.94, 36.82 35.01, 66.26 1.95 M2.36 81.55 C21.02 57.87, 38.93 36.2, 71.25 2.31 M2.36 81.55 C22.22 57.95, 41.07 37.38, 71.25 2.31 M2.76 87.2 C24.27 60.77, 46.72 37.04, 76.89 1.91 M2.76 87.2 C26.43 60.79, 47.62 33.18, 76.89 1.91 M2.49 93.59 C28.24 64.83, 54.88 34.95, 81.88 2.27 M2.49 93.59 C25.37 67.12, 46.73 41.09, 81.88 2.27 M2.89 99.24 C31.13 63.3, 64.2 30.66, 87.52 1.88 M2.89 99.24 C30.61 64.22, 60.89 30.01, 87.52 1.88 M2.63 105.64 C19.52 82.77, 38.36 61.65, 92.51 2.24 M2.63 105.64 C38.06 65.05, 73.85 24.52, 92.51 2.24 M2.37 112.03 C26.52 88.17, 45.74 62.53, 98.15 1.85 M2.37 112.03 C38.32 69.61, 74.84 28.5, 98.15 1.85 M2.76 117.68 C41.4 72.37, 80.09 27.69, 103.14 2.21 M2.76 117.68 C35.58 78.05, 70.24 38.21, 103.14 2.21 M1.19 125.58 C30.92 93.2, 55.89 62.74, 108.78 1.81 M1.19 125.58 C25.67 97.67, 50.68 68.73, 108.78 1.81 M2.89 129.72 C46.56 81.42, 90.34 30.51, 113.77 2.17 M2.89 129.72 C38.1 88.11, 74.79 48.66, 113.77 2.17 M3.94 134.61 C36.24 99.05, 63.9 62.03, 119.41 1.78 M3.94 134.61 C40.68 90.07, 79.13 46.56, 119.41 1.78 M6.31 137.98 C36.98 102.37, 63.05 72.14, 124.4 2.14 M6.31 137.98 C44.38 92.82, 83.32 48.04, 124.4 2.14 M8.67 141.36 C52.49 89.1, 98.82 35.68, 130.04 1.74 M8.67 141.36 C50.54 94.18, 90.33 49.33, 130.04 1.74 M11.69 143.99 C40.86 106.18, 73.34 72.21, 135.03 2.1 M11.69 143.99 C56.94 89.17, 104.79 35.99, 135.03 2.1 M14.71 146.61 C62.42 93.92, 108.24 42.08, 140.67 1.71 M14.71 146.61 C54.15 101.89, 91.65 58.8, 140.67 1.71 M19.04 147.73 C47.93 116.97, 77.43 85.14, 145.66 2.07 M19.04 147.73 C56.15 104.32, 94.51 63.39, 145.66 2.07 M22.71 149.6 C65.26 103.37, 108.57 53.74, 150.65 2.43 M22.71 149.6 C68.66 96.35, 114.22 43.96, 150.65 2.43 M27.04 150.71 C79.6 94.63, 126.25 37.1, 156.29 2.03 M27.04 150.71 C67.45 103.96, 109.53 55.03, 156.29 2.03 M32.69 150.32 C59.83 116.51, 86.79 87.33, 161.28 2.39 M32.69 150.32 C79.71 94.82, 127.7 39.22, 161.28 2.39 M38.33 149.92 C79.58 101.25, 119.94 55.67, 166.92 2 M38.33 149.92 C83.59 98.73, 127.34 46.9, 166.92 2 M43.32 150.28 C75.72 114.29, 108.74 75.9, 171.91 2.36 M43.32 150.28 C82.89 104.3, 123.48 58.55, 171.91 2.36 M48.96 149.89 C78.81 115.81, 107.33 82.28, 177.55 1.96 M48.96 149.89 C83.58 111.32, 115.66 74.43, 177.55 1.96 M53.95 150.25 C103.08 94.45, 151.72 40.59, 182.54 2.32 M53.95 150.25 C90.44 106.98, 129.94 62.68, 182.54 2.32 M59.59 149.85 C90.21 114.66, 122.53 83.04, 188.18 1.93 M59.59 149.85 C105.04 98.79, 149.27 47.13, 188.18 1.93 M64.58 150.21 C110.55 94.66, 160 36.27, 193.17 2.29 M64.58 150.21 C103.18 103.36, 142.45 59.68, 193.17 2.29 M70.22 149.82 C114.32 99.1, 156.47 49.99, 199.46 1.14 M70.22 149.82 C117.12 97.2, 162.16 44.97, 199.46 1.14 M75.21 150.18 C121.22 99.04, 168.97 46.11, 205.11 0.75 M75.21 150.18 C117.4 101.19, 158.7 53.62, 205.11 0.75 M80.85 149.78 C127.39 95, 175.42 38.59, 208.78 2.62 M80.85 149.78 C107.74 119.16, 134.17 87.32, 208.78 2.62 M85.84 150.14 C115.1 117.72, 145.49 79.37, 213.11 3.73 M85.84 150.14 C129.32 99.29, 174.56 47.35, 213.11 3.73 M91.48 149.75 C132.39 100.84, 175.94 51.56, 216.79 5.6 M91.48 149.75 C128.09 106.47, 165.23 63.73, 216.79 5.6 M96.47 150.11 C134.12 107.16, 173.36 62.77, 221.12 6.71 M96.47 150.11 C124.78 119.19, 149.74 89.16, 221.12 6.71 M101.46 150.47 C130.67 115.71, 164.1 79.48, 224.14 9.34 M101.46 150.47 C149.51 97.92, 196.54 42.8, 224.14 9.34 M107.1 150.07 C138.29 114.82, 170.37 76.29, 226.5 12.72 M107.1 150.07 C150.68 100.37, 192.26 52.77, 226.5 12.72 M112.09 150.43 C136.12 122.27, 162.58 91.19, 228.21 16.85 M112.09 150.43 C142.23 114.43, 175.16 77.89, 228.21 16.85 M117.73 150.04 C152.92 109.59, 188.83 66.98, 231.23 19.48 M117.73 150.04 C144 121.55, 170.77 90.53, 231.23 19.48 M122.72 150.4 C151.29 118.23, 176.9 86.5, 231.62 25.12 M122.72 150.4 C164.93 101.25, 208.41 53.5, 231.62 25.12 M128.36 150.01 C166.47 107.02, 202.94 63.98, 230.7 32.27 M128.36 150.01 C161.32 111.11, 195.33 72.64, 230.7 32.27 M133.35 150.37 C155.99 125.78, 179.75 97.86, 231.1 37.91 M133.35 150.37 C170.72 108.52, 206.39 66.67, 231.1 37.91 M138.99 149.97 C174.93 109.62, 209.15 70.48, 230.84 44.31 M138.99 149.97 C170.27 114.77, 201.7 79.08, 230.84 44.31 M143.98 150.33 C172.15 121.25, 197.35 91.76, 231.23 49.96 M143.98 150.33 C167.19 122.46, 191.37 94.86, 231.23 49.96 M149.62 149.94 C181.48 113.54, 213.15 76.34, 230.97 56.35 M149.62 149.94 C180.19 114.07, 210.11 80.19, 230.97 56.35 M154.61 150.3 C179.32 123.69, 200.89 94.99, 230.71 62.75 M154.61 150.3 C182.7 118.59, 208.74 86.53, 230.71 62.75 M160.25 149.9 C184.01 123.35, 209.01 91.72, 231.1 68.39 M160.25 149.9 C187.36 119.04, 214.15 89.04, 231.1 68.39 M165.24 150.26 C192.79 121.15, 215.31 93.37, 230.84 74.79 M165.24 150.26 C188.08 124.22, 211.28 96.48, 230.84 74.79 M170.88 149.87 C185.52 133.44, 203.68 115.65, 231.24 80.43 M170.88 149.87 C188.42 128.15, 207.59 106.72, 231.24 80.43 M175.87 150.23 C193.68 130.81, 212.07 108.72, 230.97 86.83 M175.87 150.23 C195.2 128.35, 214.21 106.4, 230.97 86.83 M181.51 149.83 C192.01 138.51, 202.46 123.64, 230.71 93.23 M181.51 149.83 C197.23 132.37, 214.04 112.3, 230.71 93.23 M186.5 150.19 C197.51 138.53, 205.99 127.36, 231.11 98.87 M186.5 150.19 C198.37 136.41, 210.5 123.04, 231.11 98.87 M192.14 149.8 C198.13 140.31, 207.15 131.62, 230.85 105.27 M192.14 149.8 C202.05 138.51, 209.96 129.52, 230.85 105.27 M197.13 150.16 C206.5 139.59, 213.83 133.97, 231.24 110.91 M197.13 150.16 C206.51 139.64, 216.07 127.08, 231.24 110.91 M201.46 151.27 C207.07 143.68, 215.26 134.95, 230.98 117.31 M201.46 151.27 C208.19 143.88, 215.14 135.22, 230.98 117.31 M207.1 150.88 C210.24 146.62, 217.2 139.26, 230.72 123.71 M207.1 150.88 C216.02 140.93, 223.66 131.08, 230.72 123.71 M214.06 148.98 C219.55 141.43, 228.59 134.98, 233.08 127.09 M214.06 148.98 C221.01 141.96, 226.86 132.94, 233.08 127.09" stroke="#1e1e1e" stroke-width="0.5" fill="none"></path><path d="M32 0 M32 0 C76.39 -1.6, 123.08 0.51, 198.89 0 M32 0 C79.19 -1.88, 125.73 0.04, 198.89 0 M198.89 0 C219.56 -1.19, 229.96 11.57, 230.89 32 M198.89 0 C221.27 1.93, 230.33 9.67, 230.89 32 M230.89 32 C228.65 61.37, 230.08 85.49, 230.89 117.34 M230.89 32 C230.15 56.53, 230.64 81.98, 230.89 117.34 M230.89 117.34 C231.73 139.64, 221.06 150.62, 198.89 149.34 M230.89 117.34 C232 140.93, 220.81 150.82, 198.89 149.34 M198.89 149.34 C134.94 148.34, 69.5 147.77, 32 149.34 M198.89 149.34 C136.25 149.93, 75.34 149.03, 32 149.34 M32 149.34 C11.79 150.13, -1.1 137.56, 0 117.34 M32 149.34 C9.93 149.52, 1.34 139.07, 0 117.34 M0 117.34 C0.77 98.9, 1.25 80.49, 0 32 M0 117.34 C-0.99 90.19, -0.09 64.62, 0 32 M0 32 C0.1 10.25, 8.98 -0.25, 32 0 M0 32 C0.65 11.47, 10.27 1.08, 32 0" stroke="#1e1e1e" stroke-width="1" fill="none"></path></g></svg>