<svg version="1.1" xmlns="http://www.w3.org/2000/svg" viewBox="0 0 405.3855477158729 428.5878750966674" width="405.3855477158729" height="428.5878750966674">
  <!-- svg-source:excalidraw -->
  
  <defs>
    <style class="style-fonts">
      @font-face {
        font-family: "Virgil";
        src: url("https://excalidraw.com/Virgil.woff2");
      }
      @font-face {
        font-family: "Cascadia";
        src: url("https://excalidraw.com/Cascadia.woff2");
      }
    </style>
    
  </defs>
  <rect x="0" y="0" width="405.3855477158729" height="428.5878750966674" fill="#ffffff"></rect><g transform="translate(119.8728508757365 10) rotate(0 74.37992095947266 12.5)"><text x="0" y="0" font-family="Virgil, Segoe UI Emoji" font-size="20px" fill="#1e1e1e" text-anchor="start" style="white-space: pre;" direction="ltr" dominant-baseline="text-before-edge">Animation Name</text></g><g stroke-linecap="round"><g transform="translate(39.47137951749892 115.76295350736564) rotate(0 161.96280861611353 3.0485148910454427)"><path d="M0.93 0.89 C54.72 1.71, 268 3.77, 321.84 4.19 M-0.04 0.3 C54.18 1.42, 270 5.11, 323.96 5.79" stroke="#1e1e1e" stroke-width="1" fill="none"></path></g></g><mask></mask><g transform="translate(329.3010179814805 109.1341819990555) rotate(0 1.6819091510340058 -7.672051684173994)" stroke="none"><path fill="#1e1e1e" d="M -1.40,-0.20 Q -1.40,-0.20 -1.28,-1.66 -1.16,-3.11 -0.94,-4.30 -0.72,-5.49 -0.37,-7.02 -0.02,-8.56 0.32,-10.31 0.67,-12.07 1.39,-13.31 2.12,-14.55 2.17,-14.70 2.22,-14.85 2.30,-14.98 2.39,-15.11 2.50,-15.22 2.61,-15.33 2.75,-15.41 2.89,-15.49 3.04,-15.54 3.19,-15.58 3.35,-15.59 3.51,-15.60 3.66,-15.56 3.82,-15.53 3.96,-15.46 4.10,-15.40 4.23,-15.30 4.35,-15.20 4.44,-15.07 4.54,-14.94 4.60,-14.80 4.66,-14.65 4.69,-14.50 4.72,-14.34 4.70,-14.18 4.69,-14.03 4.69,-14.03 4.69,-14.04 4.62,-13.84 4.55,-13.64 4.42,-13.48 4.29,-13.31 4.11,-13.20 3.93,-13.08 3.72,-13.03 3.52,-12.98 3.30,-12.99 3.09,-13.01 2.90,-13.09 2.70,-13.18 2.54,-13.32 2.38,-13.46 2.28,-13.64 2.17,-13.83 2.13,-14.04 2.09,-14.24 2.12,-14.46 2.15,-14.67 2.24,-14.86 2.33,-15.05 2.48,-15.20 2.63,-15.35 2.82,-15.44 3.01,-15.54 3.22,-15.57 3.43,-15.60 3.64,-15.56 3.85,-15.52 4.04,-15.42 4.22,-15.31 4.37,-15.16 4.51,-15.00 4.59,-14.80 4.68,-14.61 4.70,-14.40 4.71,-14.18 4.66,-13.98 4.61,-13.77 4.50,-13.59 4.39,-13.41 4.22,-13.28 4.05,-13.15 3.86,-13.07 3.66,-13.00 3.44,-12.99 3.23,-12.98 3.03,-13.05 2.83,-13.11 2.65,-13.23 2.48,-13.35 2.35,-13.53 2.23,-13.70 2.17,-13.90 2.10,-14.10 2.11,-14.32 2.12,-14.55 2.17,-14.70 2.22,-14.85 2.30,-14.98 2.39,-15.11 2.50,-15.22 2.61,-15.33 2.75,-15.41 2.89,-15.49 3.04,-15.54 3.19,-15.58 3.35,-15.59 3.51,-15.60 3.66,-15.56 3.82,-15.53 3.96,-15.46 4.10,-15.40 4.23,-15.30 4.35,-15.20 4.44,-15.07 4.54,-14.94 4.60,-14.80 4.66,-14.65 4.69,-14.50 4.72,-14.34 4.70,-14.18 4.69,-14.03 4.38,-13.29 4.08,-12.55 3.82,-11.23 3.56,-9.92 3.34,-8.87 3.12,-7.83 2.78,-6.36 2.44,-4.89 2.22,-3.77 2.01,-2.65 1.70,-1.22 1.40,0.20 1.35,0.37 1.31,0.53 1.23,0.68 1.14,0.83 1.03,0.96 0.91,1.08 0.77,1.17 0.62,1.27 0.46,1.32 0.30,1.38 0.13,1.40 -0.03,1.41 -0.20,1.39 -0.37,1.36 -0.53,1.30 -0.69,1.23 -0.82,1.13 -0.96,1.03 -1.07,0.90 -1.18,0.77 -1.26,0.62 -1.33,0.46 -1.37,0.30 -1.41,0.13 -1.40,-0.03 -1.40,-0.20 -1.40,-0.20 L -1.40,-0.20 Z"></path></g><g transform="translate(330.8354303064111 103.49816902717248) rotate(0 4.72123045948274 0.47212304594836496)" stroke="none"><path fill="#1e1e1e" d="M 1.34,0.19 Q 1.34,0.19 1.33,0.90 1.32,1.61 2.12,0.40 2.93,-0.80 4.21,-1.33 5.50,-1.86 7.45,-1.94 9.41,-2.02 9.56,-2.06 9.71,-2.10 9.87,-2.10 10.03,-2.11 10.18,-2.07 10.34,-2.04 10.48,-1.97 10.62,-1.89 10.74,-1.79 10.86,-1.69 10.95,-1.56 11.04,-1.43 11.10,-1.28 11.16,-1.14 11.18,-0.98 11.21,-0.82 11.19,-0.67 11.17,-0.51 11.12,-0.36 11.07,-0.21 10.98,-0.08 10.89,0.04 10.77,0.15 10.66,0.26 10.52,0.33 10.38,0.41 10.56,0.30 10.73,0.20 10.55,0.31 10.36,0.41 10.16,0.46 9.95,0.50 9.74,0.48 9.53,0.45 9.33,0.36 9.14,0.27 8.99,0.12 8.84,-0.02 8.74,-0.21 8.64,-0.40 8.61,-0.61 8.58,-0.82 8.62,-1.03 8.65,-1.24 8.75,-1.42 8.86,-1.61 9.01,-1.75 9.17,-1.90 9.36,-1.98 9.56,-2.07 9.77,-2.09 9.98,-2.11 10.19,-2.06 10.39,-2.02 10.57,-1.90 10.75,-1.79 10.89,-1.63 11.03,-1.46 11.10,-1.27 11.18,-1.07 11.19,-0.86 11.20,-0.64 11.14,-0.44 11.08,-0.24 10.96,-0.06 10.84,0.10 10.66,0.23 10.49,0.36 10.29,0.42 10.09,0.49 9.88,0.48 9.66,0.48 9.46,0.41 9.26,0.34 9.10,0.21 8.93,0.08 8.81,-0.09 8.69,-0.26 8.64,-0.47 8.59,-0.67 8.60,-0.89 8.61,-1.10 8.69,-1.30 8.78,-1.49 9.09,-1.76 9.41,-2.02 9.56,-2.06 9.71,-2.10 9.87,-2.10 10.03,-2.11 10.18,-2.07 10.34,-2.04 10.48,-1.97 10.62,-1.90 10.74,-1.79 10.86,-1.69 10.95,-1.56 11.04,-1.43 11.10,-1.29 11.16,-1.14 11.18,-0.98 11.21,-0.82 11.19,-0.67 11.17,-0.51 11.12,-0.36 11.07,-0.21 10.98,-0.08 10.89,0.04 10.77,0.15 10.66,0.26 10.52,0.33 10.38,0.41 8.60,0.89 6.81,1.37 5.52,1.89 4.23,2.42 3.18,2.84 2.12,3.27 1.01,3.44 -0.09,3.61 -0.91,2.40 -1.72,1.20 -1.53,0.50 -1.34,-0.19 -1.30,-0.35 -1.26,-0.51 -1.18,-0.65 -1.10,-0.79 -0.99,-0.92 -0.88,-1.04 -0.74,-1.13 -0.60,-1.22 -0.45,-1.27 -0.29,-1.33 -0.13,-1.34 0.03,-1.36 0.19,-1.33 0.35,-1.31 0.50,-1.25 0.66,-1.19 0.79,-1.09 0.92,-0.99 1.03,-0.87 1.13,-0.74 1.21,-0.60 1.28,-0.45 1.32,-0.29 1.35,-0.13 1.35,0.03 1.34,0.19 1.34,0.19 L 1.34,0.19 Z"></path></g><g transform="translate(333.13700903189124 94.76380818305847) rotate(0 12.806358744864951 -9.147467266758781)" stroke="none"><path fill="#1e1e1e" d="M -1.40,-0.06 Q -1.40,-0.06 -1.44,-0.45 -1.48,-0.85 -1.05,-1.90 -0.62,-2.96 0.13,-3.96 0.90,-4.96 1.97,-6.62 3.04,-8.28 4.62,-10.27 6.21,-12.25 7.13,-13.24 8.05,-14.23 8.90,-15.10 9.76,-15.98 10.55,-16.77 11.34,-17.56 13.11,-19.18 14.89,-20.80 15.88,-21.53 16.88,-22.27 18.00,-22.97 19.13,-23.68 20.39,-24.14 21.66,-24.61 23.30,-24.18 24.95,-23.76 25.83,-22.55 26.71,-21.34 27.12,-19.96 27.53,-18.57 27.55,-17.25 27.56,-15.94 27.30,-14.67 27.04,-13.41 26.52,-12.03 26.01,-10.66 25.52,-9.54 25.02,-8.43 24.34,-7.08 23.65,-5.74 22.91,-4.60 22.18,-3.46 21.52,-2.61 20.86,-1.76 20.12,-0.92 19.38,-0.08 18.37,0.93 17.36,1.96 16.42,2.70 15.49,3.43 13.51,4.46 11.53,5.49 11.33,5.56 11.13,5.63 10.91,5.64 10.70,5.64 10.50,5.58 10.30,5.52 10.12,5.39 9.95,5.27 9.83,5.10 9.70,4.93 9.64,4.72 9.58,4.52 9.59,4.31 9.59,4.09 9.66,3.89 9.74,3.70 9.87,3.53 10.00,3.36 10.18,3.25 10.36,3.14 10.57,3.09 10.78,3.03 10.99,3.05 11.20,3.07 11.39,3.15 11.59,3.24 11.75,3.38 11.91,3.52 12.01,3.71 12.11,3.89 12.15,4.10 12.19,4.31 12.16,4.52 12.14,4.73 12.04,4.92 11.95,5.11 11.80,5.26 11.65,5.41 11.46,5.50 11.26,5.60 11.05,5.63 10.84,5.66 10.64,5.62 10.43,5.58 10.24,5.47 10.06,5.37 9.92,5.21 9.77,5.05 9.69,4.85 9.61,4.66 9.59,4.45 9.57,4.23 9.62,4.03 9.68,3.82 9.79,3.64 9.90,3.46 10.07,3.33 10.24,3.20 10.24,3.20 10.24,3.20 11.31,2.06 12.38,0.93 13.23,0.29 14.08,-0.34 14.97,-1.19 15.86,-2.04 16.82,-3.11 17.79,-4.18 18.65,-5.33 19.50,-6.48 20.05,-7.44 20.60,-8.40 21.24,-9.70 21.88,-11.00 22.37,-12.22 22.87,-13.45 23.23,-14.79 23.60,-16.12 23.57,-17.27 23.54,-18.41 23.08,-19.51 22.63,-20.62 21.56,-20.20 20.49,-19.79 19.08,-18.76 17.67,-17.74 15.97,-16.19 14.26,-14.64 13.49,-13.87 12.72,-13.10 11.91,-12.26 11.09,-11.42 10.23,-10.48 9.37,-9.54 8.35,-8.39 7.33,-7.23 6.23,-5.86 5.13,-4.49 4.38,-3.58 3.63,-2.66 2.59,-1.68 1.55,-0.71 1.47,-0.32 1.40,0.06 1.37,0.22 1.34,0.39 1.28,0.55 1.21,0.70 1.11,0.84 1.00,0.97 0.87,1.08 0.74,1.18 0.59,1.26 0.44,1.33 0.27,1.36 0.10,1.39 -0.06,1.39 -0.22,1.38 -0.39,1.33 -0.55,1.29 -0.70,1.20 -0.84,1.11 -0.96,1.00 -1.09,0.88 -1.18,0.74 -1.27,0.59 -1.32,0.43 -1.37,0.27 -1.38,0.10 -1.40,-0.06 -1.40,-0.06 L -1.40,-0.06 Z"></path></g><g transform="translate(348.18593981941194 78.82951870071906) rotate(0 3.703245895013424 4.75078350328954)" stroke="none"><path fill="#1e1e1e" d="M 1.06,-0.95 Q 1.06,-0.95 2.50,0.49 3.94,1.94 4.90,3.15 5.86,4.36 7.02,6.16 8.17,7.97 8.27,8.16 8.36,8.35 8.40,8.56 8.43,8.77 8.39,8.98 8.35,9.19 8.25,9.37 8.15,9.56 7.99,9.70 7.84,9.85 7.65,9.93 7.45,10.02 7.24,10.04 7.03,10.06 6.82,10.01 6.61,9.97 6.43,9.85 6.25,9.74 6.12,9.58 5.98,9.42 5.91,9.22 5.83,9.02 5.82,8.81 5.81,8.59 5.87,8.39 5.93,8.19 6.05,8.01 6.17,7.84 6.34,7.71 6.51,7.58 6.72,7.52 6.92,7.45 7.13,7.46 7.34,7.46 7.54,7.53 7.74,7.60 7.91,7.73 8.08,7.86 8.20,8.04 8.31,8.22 8.37,8.42 8.42,8.63 8.41,8.84 8.39,9.05 8.31,9.25 8.23,9.44 8.09,9.60 7.95,9.76 7.77,9.87 7.59,9.98 7.38,10.02 7.17,10.06 6.96,10.04 6.75,10.01 6.56,9.92 6.36,9.83 6.21,9.68 6.06,9.53 6.06,9.53 6.06,9.53 4.71,7.96 3.36,6.39 2.42,5.26 1.48,4.13 0.20,2.54 -1.06,0.95 -1.16,0.81 -1.26,0.67 -1.32,0.51 -1.39,0.34 -1.41,0.17 -1.43,0.00 -1.41,-0.16 -1.39,-0.33 -1.33,-0.49 -1.27,-0.66 -1.17,-0.80 -1.07,-0.94 -0.94,-1.06 -0.81,-1.17 -0.66,-1.25 -0.51,-1.33 -0.34,-1.38 -0.17,-1.42 -0.00,-1.42 0.16,-1.42 0.33,-1.38 0.50,-1.34 0.65,-1.26 0.80,-1.18 0.93,-1.06 1.06,-0.95 1.06,-0.95 L 1.06,-0.95 Z"></path></g><g transform="translate(333.3435324217771 93.11136261152114) rotate(0 3.9983190710513554 3.511464235355106)" stroke="none"><path fill="#1e1e1e" d="M 0.87,-1.15 Q 0.87,-1.15 2.33,-0.22 3.79,0.71 4.80,1.62 5.80,2.52 7.30,4.25 8.79,5.98 8.92,6.15 9.05,6.32 9.12,6.52 9.19,6.72 9.19,6.94 9.19,7.15 9.12,7.35 9.05,7.55 8.93,7.72 8.80,7.89 8.62,8.01 8.45,8.13 8.24,8.19 8.04,8.25 7.83,8.24 7.62,8.23 7.42,8.15 7.22,8.07 7.06,7.93 6.89,7.80 6.78,7.62 6.67,7.43 6.63,7.23 6.58,7.02 6.60,6.81 6.62,6.60 6.71,6.40 6.80,6.21 6.95,6.06 7.09,5.90 7.28,5.80 7.47,5.70 7.68,5.66 7.89,5.63 8.10,5.66 8.31,5.70 8.49,5.79 8.68,5.89 8.83,6.05 8.98,6.20 9.07,6.39 9.16,6.59 9.18,6.80 9.20,7.01 9.16,7.22 9.11,7.42 9.01,7.61 8.90,7.79 8.73,7.93 8.57,8.06 8.38,8.14 8.18,8.22 7.97,8.24 7.76,8.25 7.55,8.19 7.35,8.14 7.17,8.02 6.99,7.90 6.99,7.90 6.99,7.90 5.25,6.49 3.51,5.08 2.61,4.27 1.70,3.46 0.41,2.30 -0.87,1.15 -1.00,1.03 -1.12,0.91 -1.22,0.76 -1.31,0.61 -1.36,0.44 -1.42,0.28 -1.43,0.10 -1.44,-0.06 -1.41,-0.23 -1.39,-0.41 -1.32,-0.57 -1.25,-0.73 -1.14,-0.87 -1.04,-1.00 -0.90,-1.11 -0.76,-1.22 -0.61,-1.30 -0.45,-1.37 -0.28,-1.41 -0.10,-1.44 0.06,-1.43 0.23,-1.43 0.40,-1.38 0.57,-1.33 0.72,-1.24 0.87,-1.15 0.87,-1.15 L 0.87,-1.15 Z"></path></g><g transform="translate(74.24290216777649 62.46149119806091) rotate(0 50.07354736328125 21.19349449281242)"><text x="0" y="0" font-family="Virgil, Segoe UI Emoji" font-size="33.90959118849987px" fill="#1e1e1e" text-anchor="start" style="white-space: pre;" direction="ltr" dominant-baseline="text-before-edge">fadein</text></g><g transform="translate(144.36283348071697 178.7166641431495) rotate(0 49.88993835449219 12.5)"><text x="0" y="0" font-family="Virgil, Segoe UI Emoji" font-size="20px" fill="#1e1e1e" text-anchor="start" style="white-space: pre;" direction="ltr" dominant-baseline="text-before-edge">Properties</text></g><g transform="translate(10 393.5878750966674) rotate(0 36.40995788574219 12.5)"><text x="0" y="0" font-family="Virgil, Segoe UI Emoji" font-size="20px" fill="#1e1e1e" text-anchor="start" style="white-space: pre;" direction="ltr" dominant-baseline="text-before-edge">Opacity</text></g><g transform="translate(10 300.3755981095562) rotate(0 25.869972229003906 12.5)"><text x="0" y="0" font-family="Virgil, Segoe UI Emoji" font-size="20px" fill="#1e1e1e" text-anchor="start" style="white-space: pre;" direction="ltr" dominant-baseline="text-before-edge">Scale</text></g><g transform="translate(10 347.5361837626956) rotate(0 35.75995635986328 12.5)"><text x="0" y="0" font-family="Virgil, Segoe UI Emoji" font-size="20px" fill="#1e1e1e" text-anchor="start" style="white-space: pre;" direction="ltr" dominant-baseline="text-before-edge">Rotate</text></g><g transform="translate(10 255.55491950973214) rotate(0 49.529945373535156 12.5)"><text x="0" y="0" font-family="Virgil, Segoe UI Emoji" font-size="20px" fill="#1e1e1e" text-anchor="start" style="white-space: pre;" direction="ltr" dominant-baseline="text-before-edge">Translate</text></g><g stroke-linecap="round" transform="translate(190.96712740357043 303.60680235377663) rotate(0 8.729184263036245 7.822238172654238)"><path d="M1.32 3.8 C1.32 3.8, 1.32 3.8, 1.32 3.8 M1.32 3.8 C1.32 3.8, 1.32 3.8, 1.32 3.8 M1.48 8.65 C3.45 6.09, 8.24 3.23, 9.14 1.75 M1.57 9.05 C4.73 7.13, 6.67 3.33, 8.98 0.59 M3.4 13.67 C6.12 9.76, 10.74 6.03, 14.72 1.71 M2.04 14.65 C5.93 9.99, 9.91 5.16, 13.94 1.82 M6 17.59 C10.2 13.06, 12.98 7.57, 16.31 5.75 M6.99 15.54 C9.43 12.65, 13.39 7.91, 16.59 4.96 M12.82 14.17 C14.14 13.3, 17.46 10.7, 18.77 8.7 M12.69 15.4 C14.91 13, 16.01 10.47, 18.35 8.15" stroke="#a5d8ff" stroke-width="0.5" fill="none"></path><path d="M6.56 -0.34 C8.18 -0.72, 10.93 0.62, 12.64 1.69 C14.34 2.76, 15.95 4.64, 16.81 6.08 C17.67 7.51, 18.6 8.85, 17.8 10.32 C17 11.79, 13.81 13.87, 12.02 14.89 C10.22 15.91, 8.83 16.63, 7.01 16.42 C5.19 16.2, 2.35 15.1, 1.09 13.6 C-0.17 12.1, -0.63 9.09, -0.55 7.41 C-0.46 5.72, 0.04 4.88, 1.59 3.49 C3.13 2.09, 7.7 -0.38, 8.72 -0.94 C9.73 -1.5, 7.85 -0.17, 7.67 0.11 M8.09 0.97 C9.91 0.9, 11.87 1.08, 13.55 1.92 C15.22 2.77, 17.63 4.37, 18.15 6.05 C18.67 7.74, 17.76 10.62, 16.68 12.02 C15.61 13.42, 13.52 13.74, 11.7 14.45 C9.88 15.15, 7.63 16.65, 5.77 16.25 C3.9 15.85, 1.49 13.87, 0.48 12.05 C-0.52 10.24, -0.64 6.96, -0.26 5.37 C0.12 3.78, 1.31 3.63, 2.77 2.5 C4.24 1.37, 7.68 -0.91, 8.54 -1.42 C9.41 -1.93, 7.88 -0.77, 7.94 -0.57" stroke="#1e1e1e" stroke-width="1" fill="none"></path></g><g stroke-linecap="round" transform="translate(171.5257276813113 308.1287051967761) rotate(0 83.51690130283794 3.935091532066508)"><path d="M0.52 0.46 C0.52 0.46, 0.52 0.46, 0.52 0.46 M0.52 0.46 C0.52 0.46, 0.52 0.46, 0.52 0.46 M0.92 6.1 C1.64 4.96, 3.36 4.08, 4.2 2.32 M0.92 6.1 C1.71 4.61, 3.05 3.69, 4.2 2.32 M3.28 9.48 C5.84 7.26, 7.12 5.43, 9.84 1.93 M3.28 9.48 C5.19 7.12, 7.32 4.68, 9.84 1.93 M8.92 9.08 C10.42 7.5, 12.73 4.9, 14.83 2.29 M8.92 9.08 C10.5 7.7, 11.38 6.27, 14.83 2.29 M13.91 9.44 C16.35 7.23, 17.68 5.3, 20.47 1.9 M13.91 9.44 C16.55 6.86, 18.43 4.18, 20.47 1.9 M19.55 9.05 C21.37 7.49, 22.47 6.06, 25.46 2.26 M19.55 9.05 C22.05 6.2, 24.41 3.52, 25.46 2.26 M24.54 9.41 C27.09 6.47, 28.51 3.21, 31.1 1.86 M24.54 9.41 C26.77 6.31, 29.5 4.25, 31.1 1.86 M30.18 9.01 C31.37 7.72, 34.16 4.44, 36.09 2.22 M30.18 9.01 C32.6 6.33, 34.83 4.05, 36.09 2.22 M35.17 9.37 C38.19 5.95, 40.19 4.03, 41.73 1.83 M35.17 9.37 C36.54 8.02, 38.05 6.64, 41.73 1.83 M40.81 8.98 C43.11 7.12, 46.32 3.34, 46.72 2.19 M40.81 8.98 C42.14 7.23, 42.88 6.66, 46.72 2.19 M45.8 9.34 C47.3 8.45, 48.83 6.21, 52.36 1.79 M45.8 9.34 C48 6.49, 50.41 4.17, 52.36 1.79 M51.44 8.94 C52.92 7.13, 54.42 5.36, 57.35 2.15 M51.44 8.94 C53.04 6.62, 55.7 4.74, 57.35 2.15 M56.43 9.3 C58.2 6.27, 61.31 4.74, 62.99 1.76 M56.43 9.3 C58.67 7.62, 59.76 5.47, 62.99 1.76 M62.07 8.91 C63.57 7.56, 64.27 5.35, 67.98 2.12 M62.07 8.91 C64.13 7.13, 65.36 5.39, 67.98 2.12 M67.06 9.27 C68.64 7.62, 70.95 4.7, 72.97 2.48 M67.06 9.27 C68.21 7.44, 69.95 6.08, 72.97 2.48 M72.7 8.88 C73.88 6.74, 76.23 5.55, 78.61 2.08 M72.7 8.88 C73.83 7.67, 75.48 5.66, 78.61 2.08 M77.69 9.24 C79.7 7.54, 80.65 5.47, 83.6 2.44 M77.69 9.24 C79.54 7.02, 82.24 4.62, 83.6 2.44 M83.33 8.84 C83.99 7.01, 85.74 4.36, 89.24 2.05 M83.33 8.84 C85.59 6.32, 87.32 3.85, 89.24 2.05 M88.32 9.2 C90.96 7.44, 91.91 4.44, 94.23 2.41 M88.32 9.2 C90.13 6.92, 91.22 5.82, 94.23 2.41 M93.31 9.56 C96.73 5.86, 97.88 4.01, 99.87 2.01 M93.31 9.56 C95.17 7.28, 97.79 5.02, 99.87 2.01 M98.95 9.17 C100.95 6.53, 103.12 3, 104.86 2.37 M98.95 9.17 C100.77 7.82, 102.06 5.64, 104.86 2.37 M103.94 9.53 C105.64 8.19, 108.66 5.82, 110.5 1.98 M103.94 9.53 C105.46 8.01, 106.77 6.74, 110.5 1.98 M109.58 9.13 C111.96 7.04, 113.44 4.96, 115.49 2.34 M109.58 9.13 C111.64 6.79, 113.15 4.67, 115.49 2.34 M114.57 9.49 C116.77 7.62, 118.08 5.2, 121.13 1.95 M114.57 9.49 C116.68 7.54, 117.43 5.76, 121.13 1.95 M120.21 9.1 C121.17 7.27, 122.92 5.69, 126.12 2.31 M120.21 9.1 C121.53 7.39, 122.77 5.38, 126.12 2.31 M125.2 9.46 C126.93 6.95, 128.41 5.74, 131.76 1.91 M125.2 9.46 C127.94 6.65, 130.08 3.62, 131.76 1.91 M130.84 9.06 C131.7 7.6, 133.35 5.19, 136.75 2.27 M130.84 9.06 C131.79 7.98, 132.99 6.08, 136.75 2.27 M135.83 9.42 C137.61 8.18, 139.58 5.13, 142.39 1.88 M135.83 9.42 C137.6 7.05, 139.04 5.34, 142.39 1.88 M141.47 9.03 C142.77 7.65, 144.45 6.37, 147.38 2.24 M141.47 9.03 C142.94 7.02, 144.78 4.59, 147.38 2.24 M146.46 9.39 C148.25 6.76, 149.17 4.7, 153.02 1.84 M146.46 9.39 C148.75 6.27, 151.35 3.96, 153.02 1.84 M152.1 8.99 C155.11 6.43, 157.43 4.1, 158.01 2.2 M152.1 8.99 C154.34 6.33, 156.3 4.05, 158.01 2.2 M157.09 9.35 C158.58 8, 159.56 5.06, 164.96 0.3 M157.09 9.35 C159.13 5.98, 162.02 3.25, 164.96 0.3 M162.73 8.96 C164.2 6.72, 167.72 3.42, 168.64 2.17 M162.73 8.96 C164.13 6.67, 166.33 4.62, 168.64 2.17" stroke="#e9ecef" stroke-width="0.5" fill="none"></path><path d="M1.97 0 M1.97 0 C44.49 -0.75, 91.31 -0.16, 165.07 0 M1.97 0 C45.61 -0.17, 88.24 -0.7, 165.07 0 M165.07 0 C167.19 -1, 166 2.11, 167.03 1.97 M165.07 0 C168.28 -0.99, 165.88 1.45, 167.03 1.97 M167.03 1.97 C166.74 3.26, 167.19 4.91, 167.03 5.9 M167.03 1.97 C167.03 3.3, 167.15 4.73, 167.03 5.9 M167.03 5.9 C168.6 7.85, 168.11 5.88, 165.07 7.87 M167.03 5.9 C165.24 9.4, 167.01 6.48, 165.07 7.87 M165.07 7.87 C101.7 6.69, 39.85 6.85, 1.97 7.87 M165.07 7.87 C122.27 8.16, 79.47 8.71, 1.97 7.87 M1.97 7.87 C0.64 7.84, 0.5 7.03, 0 5.9 M1.97 7.87 C-0.64 9.81, 0.2 6.59, 0 5.9 M0 5.9 C-0.03 4.24, -0.02 3.63, 0 1.97 M0 5.9 C0 4.61, 0.12 3.23, 0 1.97 M0 1.97 C-0.03 1.77, -0.51 1.16, 1.97 0 M0 1.97 C0.05 -1.52, 0.96 0.94, 1.97 0" stroke="#1e1e1e" stroke-width="1" fill="none"></path></g><g stroke-linecap="round" transform="translate(190.96712740357043 396.01941989482907) rotate(0 8.729184263036245 7.822238172654238)"><path d="M1.33 3.8 C1.33 3.8, 1.33 3.8, 1.33 3.8 M1.33 3.8 C1.33 3.8, 1.33 3.8, 1.33 3.8 M1.99 9.46 C2.74 9.07, 5.4 7.23, 8.51 0.94 M0.48 10.27 C3.68 6.56, 6.49 4.05, 8.82 1.54 M1.73 14.48 C4.42 11.81, 5.85 8.95, 14.85 2.78 M3.32 14.09 C5.97 10.64, 9.46 5.77, 13.77 1.48 M6.9 17.15 C7.82 12.64, 11.68 10.59, 14.97 6.36 M6.61 16.45 C9.73 11.57, 13.61 8.72, 16.09 5.62 M14.62 13.59 C15.57 12.03, 16.99 10.29, 17.41 9.27 M14.33 13.8 C15.45 11.73, 17.29 9.82, 18.27 9.13" stroke="#a5d8ff" stroke-width="0.5" fill="none"></path><path d="M12.72 1.53 C14.33 2.1, 14.84 2.76, 15.68 4.16 C16.52 5.55, 18.1 8.34, 17.77 9.92 C17.44 11.49, 15.43 12.61, 13.71 13.62 C11.98 14.63, 9.41 15.98, 7.42 15.99 C5.44 16, 2.88 14.73, 1.8 13.68 C0.72 12.63, 1.01 11.32, 0.94 9.66 C0.86 8.01, 0.36 5.44, 1.35 3.77 C2.35 2.11, 5.02 0.09, 6.93 -0.31 C8.85 -0.7, 11.68 1.12, 12.85 1.42 C14.01 1.72, 13.91 1.5, 13.94 1.49 M4.46 2.09 C5.99 1.43, 9.53 1.44, 11.58 1.47 C13.64 1.5, 15.84 0.84, 16.78 2.28 C17.73 3.72, 17.85 8.32, 17.26 10.11 C16.66 11.9, 14.72 11.97, 13.22 13 C11.71 14.03, 9.73 16.32, 8.21 16.29 C6.69 16.27, 5.48 14.2, 4.09 12.87 C2.7 11.54, 0.39 9.66, -0.14 8.31 C-0.66 6.96, -0.16 6.05, 0.96 4.78 C2.08 3.51, 5.83 1.29, 6.59 0.7 C7.36 0.11, 5.77 1.05, 5.56 1.25" stroke="#1e1e1e" stroke-width="1" fill="none"></path></g><g stroke-linecap="round" transform="translate(171.5257276813113 400.5413227378285) rotate(0 83.51690130283794 3.935091532066508)"><path d="M0.52 0.46 C0.52 0.46, 0.52 0.46, 0.52 0.46 M0.52 0.46 C0.52 0.46, 0.52 0.46, 0.52 0.46 M0.92 6.1 C1.71 5.73, 2.82 4.42, 4.2 2.32 M0.92 6.1 C1.82 4.94, 2.92 3.52, 4.2 2.32 M3.28 9.48 C5.82 7.74, 6.83 5.81, 9.84 1.93 M3.28 9.48 C4.89 6.99, 7.86 4.14, 9.84 1.93 M8.92 9.08 C10.9 6.55, 11.86 4.72, 14.83 2.29 M8.92 9.08 C10.7 7.04, 12.59 4.86, 14.83 2.29 M13.91 9.44 C16.51 7.59, 18.6 4, 20.47 1.9 M13.91 9.44 C15.81 7.06, 17.16 6.02, 20.47 1.9 M19.55 9.05 C20.91 7.08, 24.45 4.76, 25.46 2.26 M19.55 9.05 C21.46 6.87, 24.01 4.16, 25.46 2.26 M24.54 9.41 C27.1 6.71, 28.29 5.49, 31.1 1.86 M24.54 9.41 C26.85 6.73, 28.68 4.13, 31.1 1.86 M30.18 9.01 C31.56 5.71, 34.79 3.22, 36.09 2.22 M30.18 9.01 C31.68 6.78, 34.3 4.97, 36.09 2.22 M35.17 9.37 C37.92 6.61, 39.24 4.76, 41.73 1.83 M35.17 9.37 C36.71 6.91, 38.76 4.92, 41.73 1.83 M40.81 8.98 C42.4 6.73, 44.94 3.75, 46.72 2.19 M40.81 8.98 C43.05 6.4, 45.63 3.48, 46.72 2.19 M45.8 9.34 C46.87 8.72, 48.78 6.17, 52.36 1.79 M45.8 9.34 C48.46 6.41, 51.11 3.27, 52.36 1.79 M51.44 8.94 C52.44 7.67, 54.61 6.91, 57.35 2.15 M51.44 8.94 C52.6 7.53, 54.72 5.66, 57.35 2.15 M56.43 9.3 C58.62 7.19, 61.23 3.96, 62.99 1.76 M56.43 9.3 C58.3 7.52, 59.4 5.3, 62.99 1.76 M62.07 8.91 C63.97 8.06, 65.03 6.05, 67.98 2.12 M62.07 8.91 C64.08 6.59, 65.61 4.51, 67.98 2.12 M67.06 9.27 C68.75 7.45, 71.32 4.86, 72.97 2.48 M67.06 9.27 C69.53 6.38, 71.78 3.74, 72.97 2.48 M72.7 8.88 C73.83 7.24, 76.15 4.74, 78.61 2.08 M72.7 8.88 C74.89 6.81, 77.05 3.82, 78.61 2.08 M77.69 9.24 C79.43 6.41, 80.38 4.81, 83.6 2.44 M77.69 9.24 C79.57 6.95, 81.49 4.13, 83.6 2.44 M83.33 8.84 C84.7 7.41, 87.22 5.17, 89.24 2.05 M83.33 8.84 C84.75 7.7, 85.92 6.06, 89.24 2.05 M88.32 9.2 C89.93 8.23, 92.28 5.23, 94.23 2.41 M88.32 9.2 C89.69 7.71, 90.84 6.57, 94.23 2.41 M93.31 9.56 C96.14 6.78, 96.16 5.5, 99.87 2.01 M93.31 9.56 C95.15 7.09, 97.44 3.88, 99.87 2.01 M98.95 9.17 C101.24 6.93, 102.38 4.01, 104.86 2.37 M98.95 9.17 C101.28 7.08, 102.76 4.89, 104.86 2.37 M103.94 9.53 C105.32 6.94, 107.72 5.61, 110.5 1.98 M103.94 9.53 C105.97 7.54, 108.36 4.37, 110.5 1.98 M109.58 9.13 C111.81 7.28, 112.85 4.31, 115.49 2.34 M109.58 9.13 C111.29 7.33, 112.8 4.85, 115.49 2.34 M114.57 9.49 C116.69 8.18, 118.84 5.45, 121.13 1.95 M114.57 9.49 C116.4 7.77, 117.75 6.22, 121.13 1.95 M120.21 9.1 C121.9 7.27, 124.94 4.95, 126.12 2.31 M120.21 9.1 C122.18 6.35, 124.8 3.56, 126.12 2.31 M125.2 9.46 C126.58 8.66, 127.37 5.88, 131.76 1.91 M125.2 9.46 C127.6 6.89, 129.55 4.34, 131.76 1.91 M130.84 9.06 C132.58 6.86, 135.03 3.47, 136.75 2.27 M130.84 9.06 C132.38 6.74, 134.15 5.1, 136.75 2.27 M135.83 9.42 C137.01 6.66, 139.53 4.96, 142.39 1.88 M135.83 9.42 C137.78 7.47, 139.22 5.49, 142.39 1.88 M141.47 9.03 C142.54 8.37, 143.44 6.23, 147.38 2.24 M141.47 9.03 C143.67 6.39, 145.88 4.61, 147.38 2.24 M146.46 9.39 C149.17 6.84, 152.08 3.86, 153.02 1.84 M146.46 9.39 C148.23 7.42, 149.31 5.91, 153.02 1.84 M152.1 8.99 C154.74 7.62, 155.62 4.48, 158.01 2.2 M152.1 8.99 C153.89 6.9, 155.84 4.04, 158.01 2.2 M157.09 9.35 C161.03 5.26, 163.68 2.29, 164.96 0.3 M157.09 9.35 C159.8 6.51, 162.87 3, 164.96 0.3 M162.73 8.96 C163.22 7.85, 164.32 6.97, 168.64 2.17 M162.73 8.96 C164.71 6.64, 167.61 3.3, 168.64 2.17" stroke="#e9ecef" stroke-width="0.5" fill="none"></path><path d="M1.97 0 M1.97 0 C37.95 -1.58, 72.17 1.16, 165.07 0 M1.97 0 C61.7 0.12, 122.7 -0.04, 165.07 0 M165.07 0 C167.04 1.98, 168.09 1.37, 167.03 1.97 M165.07 0 C166.88 -0.01, 165.64 0.72, 167.03 1.97 M167.03 1.97 C167.07 3.1, 167 5.06, 167.03 5.9 M167.03 1.97 C166.91 3.27, 166.88 5.02, 167.03 5.9 M167.03 5.9 C168.13 6.35, 167.85 5.9, 165.07 7.87 M167.03 5.9 C164.96 5.55, 164.31 9.71, 165.07 7.87 M165.07 7.87 C117.46 9.76, 71.43 8.98, 1.97 7.87 M165.07 7.87 C103.06 7.38, 39.97 8.64, 1.97 7.87 M1.97 7.87 C-0.32 5.98, 1.06 8.3, 0 5.9 M1.97 7.87 C-1.38 7.76, -0.23 6.86, 0 5.9 M0 5.9 C0.1 4.63, -0.09 3.94, 0 1.97 M0 5.9 C0.06 4.33, -0.17 2.83, 0 1.97 M0 1.97 C0.86 1.05, 1.3 1.83, 1.97 0 M0 1.97 C-0.54 0.25, -0.96 0.88, 1.97 0" stroke="#1e1e1e" stroke-width="1" fill="none"></path></g><g stroke-linecap="round" transform="translate(190.96712740357043 343.78204659499056) rotate(0 8.729184263036245 7.822238172654238)"><path d="M1.45 2.58 C1.45 2.58, 1.45 2.58, 1.45 2.58 M1.45 2.58 C1.45 2.58, 1.45 2.58, 1.45 2.58 M-0.26 9.54 C1.52 6.78, 2.91 6.19, 7.93 2.12 M0.33 9.94 C2.33 7.57, 4.09 4.73, 7.93 1.65 M3.52 14.15 C7.5 9.12, 11.26 3.69, 13.87 0.83 M3.08 12.99 C7.03 8.99, 11.07 4.66, 12.94 1.07 M6.08 15.32 C9.11 10.62, 15.01 7.75, 16.52 5.52 M5.53 15.34 C8.18 13.17, 10.02 10.43, 15.22 4.86 M8.37 18.68 C12.7 13.79, 15.99 9.5, 18.93 7.45 M9.99 17.28 C11.93 13.93, 14.73 11.94, 18.79 7.49" stroke="#a5d8ff" stroke-width="0.5" fill="none"></path><path d="M6 -0.4 C7.55 -1.24, 9.5 -1.02, 11.22 -0.24 C12.94 0.55, 15.42 2.63, 16.3 4.32 C17.17 6.02, 16.89 8.37, 16.45 9.94 C16.02 11.52, 15.1 12.75, 13.69 13.76 C12.29 14.77, 9.84 16.05, 8.01 16 C6.19 15.94, 4.02 14.56, 2.74 13.43 C1.46 12.3, 0.58 10.96, 0.32 9.21 C0.06 7.46, -0.09 4.35, 1.15 2.92 C2.39 1.5, 6.31 1.2, 7.75 0.65 C9.19 0.11, 9.87 -0.28, 9.81 -0.36 M8.28 0.31 C9.98 -0.07, 14.34 -0.09, 15.68 0.91 C17.02 1.9, 16.09 4.45, 16.3 6.27 C16.51 8.1, 17.68 10.12, 16.94 11.84 C16.19 13.57, 13.97 16.29, 11.82 16.64 C9.68 16.99, 5.9 15.05, 4.04 13.96 C2.19 12.88, 1.32 11.63, 0.68 10.13 C0.04 8.64, -0.14 6.66, 0.2 4.99 C0.55 3.33, 1.01 1.09, 2.75 0.14 C4.49 -0.81, 9.8 -0.59, 10.65 -0.7 C11.49 -0.81, 8.26 -0.93, 7.82 -0.52" stroke="#1e1e1e" stroke-width="1" fill="none"></path></g><g stroke-linecap="round" transform="translate(171.5257276813113 348.30394943799) rotate(0 83.51690130283794 3.935091532066508)"><path d="M0.52 0.46 C0.52 0.46, 0.52 0.46, 0.52 0.46 M0.52 0.46 C0.52 0.46, 0.52 0.46, 0.52 0.46 M0.92 6.1 C1.95 5.06, 2.52 4.28, 4.2 2.32 M0.92 6.1 C1.99 5.03, 3.13 3.5, 4.2 2.32 M3.28 9.48 C5.94 8.25, 5.99 5.9, 9.84 1.93 M3.28 9.48 C5.54 7.06, 8.06 4.19, 9.84 1.93 M8.92 9.08 C11.12 5.75, 13.56 3.21, 14.83 2.29 M8.92 9.08 C10.26 6.91, 11.74 5.29, 14.83 2.29 M13.91 9.44 C16.54 6.09, 18 3.05, 20.47 1.9 M13.91 9.44 C16.28 6.48, 18.94 3.38, 20.47 1.9 M19.55 9.05 C22.15 7.42, 22.95 5.42, 25.46 2.26 M19.55 9.05 C21.14 7.84, 22.15 5.64, 25.46 2.26 M24.54 9.41 C26.59 7.86, 28.32 5.7, 31.1 1.86 M24.54 9.41 C27.28 6.43, 29.69 3.32, 31.1 1.86 M30.18 9.01 C31.84 6.73, 33.6 6.36, 36.09 2.22 M30.18 9.01 C32.6 6.23, 34.59 3.99, 36.09 2.22 M35.17 9.37 C37.77 6.4, 40.39 4.27, 41.73 1.83 M35.17 9.37 C37.56 7.06, 39.64 3.9, 41.73 1.83 M40.81 8.98 C42.22 7.76, 44.95 5.23, 46.72 2.19 M40.81 8.98 C43.33 6.24, 45.03 3.89, 46.72 2.19 M45.8 9.34 C47.24 7.52, 50.4 3.87, 52.36 1.79 M45.8 9.34 C47.88 6.87, 49.98 4.27, 52.36 1.79 M51.44 8.94 C53.71 7.23, 55.63 4.3, 57.35 2.15 M51.44 8.94 C53.33 7.12, 55 4.9, 57.35 2.15 M56.43 9.3 C60.06 5.47, 60.82 2.91, 62.99 1.76 M56.43 9.3 C57.8 7, 59.43 5.46, 62.99 1.76 M62.07 8.91 C63.68 7.2, 64.3 5.94, 67.98 2.12 M62.07 8.91 C64.47 6.21, 66.47 4.05, 67.98 2.12 M67.06 9.27 C68.61 6.53, 71.09 4.68, 72.97 2.48 M67.06 9.27 C68.76 7.87, 69.59 5.86, 72.97 2.48 M72.7 8.88 C73.98 7.08, 75.46 6.79, 78.61 2.08 M72.7 8.88 C74.29 7.48, 75.45 5.51, 78.61 2.08 M77.69 9.24 C79.93 7.77, 80.12 4.65, 83.6 2.44 M77.69 9.24 C79.63 7.29, 81.44 4.84, 83.6 2.44 M83.33 8.84 C85.56 7.21, 87.45 5.97, 89.24 2.05 M83.33 8.84 C85.66 6.21, 88.01 3.63, 89.24 2.05 M88.32 9.2 C89.53 7.13, 91.39 5.34, 94.23 2.41 M88.32 9.2 C89.98 7.32, 91.22 5.41, 94.23 2.41 M93.31 9.56 C94.12 8.85, 96.11 6.44, 99.87 2.01 M93.31 9.56 C95.28 7.8, 96.98 5.48, 99.87 2.01 M98.95 9.17 C99.81 7.1, 101.41 6.31, 104.86 2.37 M98.95 9.17 C100.71 6.56, 102.68 4.85, 104.86 2.37 M103.94 9.53 C105.39 7.3, 107.45 6.84, 110.5 1.98 M103.94 9.53 C105.5 7.16, 107.83 5.43, 110.5 1.98 M109.58 9.13 C112.08 7.06, 112.57 5.4, 115.49 2.34 M109.58 9.13 C111.1 6.86, 113.61 5.02, 115.49 2.34 M114.57 9.49 C116.96 8, 116.85 6.9, 121.13 1.95 M114.57 9.49 C117.31 6.58, 119.11 4.41, 121.13 1.95 M120.21 9.1 C121.76 8.11, 122.47 7.11, 126.12 2.31 M120.21 9.1 C122.37 6.17, 124.97 3.98, 126.12 2.31 M125.2 9.46 C126.98 7.45, 129.5 5.82, 131.76 1.91 M125.2 9.46 C127 7.37, 128.16 5.95, 131.76 1.91 M130.84 9.06 C132.29 5.95, 134.73 4.75, 136.75 2.27 M130.84 9.06 C133.04 6.13, 135.44 4.37, 136.75 2.27 M135.83 9.42 C137.39 6.62, 140.57 5.28, 142.39 1.88 M135.83 9.42 C138.66 6.66, 140.49 3.41, 142.39 1.88 M141.47 9.03 C143.48 6.79, 146.81 3.41, 147.38 2.24 M141.47 9.03 C143.13 6.86, 145.28 5.17, 147.38 2.24 M146.46 9.39 C149.17 7.76, 150.42 4.02, 153.02 1.84 M146.46 9.39 C147.86 7.6, 149.6 5.55, 153.02 1.84 M152.1 8.99 C153.42 7.66, 155.52 4.98, 158.01 2.2 M152.1 8.99 C154.9 6.4, 157.33 3.69, 158.01 2.2 M157.09 9.35 C159.49 6.91, 162.21 4.11, 164.96 0.3 M157.09 9.35 C159.75 7.17, 161.55 3.88, 164.96 0.3 M162.73 8.96 C165.41 6.92, 166.23 5.34, 168.64 2.17 M162.73 8.96 C163.65 7.72, 165.23 5.93, 168.64 2.17" stroke="#e9ecef" stroke-width="0.5" fill="none"></path><path d="M1.97 0 M1.97 0 C60.53 -1.58, 119.85 0.09, 165.07 0 M1.97 0 C55.86 -1.25, 108.56 -0.13, 165.07 0 M165.07 0 C164.98 0.92, 168.97 1.51, 167.03 1.97 M165.07 0 C168.55 1.3, 168.3 -1.3, 167.03 1.97 M167.03 1.97 C167.17 3.01, 166.84 4.22, 167.03 5.9 M167.03 1.97 C166.88 3.19, 167 4.45, 167.03 5.9 M167.03 5.9 C165.08 5.89, 164.49 7.67, 165.07 7.87 M167.03 5.9 C164.93 5.57, 166.27 8.35, 165.07 7.87 M165.07 7.87 C113.24 6.86, 59.55 6.28, 1.97 7.87 M165.07 7.87 C106.91 6.87, 48.38 6.14, 1.97 7.87 M1.97 7.87 C0.56 7.44, 0.54 6.69, 0 5.9 M1.97 7.87 C0.45 6.77, -2.28 4.92, 0 5.9 M0 5.9 C0.22 4.61, -0.39 4.01, 0 1.97 M0 5.9 C-0.02 4.74, -0.09 3.74, 0 1.97 M0 1.97 C1.81 1.74, 1.37 -1.83, 1.97 0 M0 1.97 C1.54 0.04, 0.83 -1.81, 1.97 0" stroke="#1e1e1e" stroke-width="1" fill="none"></path></g><g transform="translate(146.72583056481653 392.31324755040623) rotate(0 6.879997253417969 12.5)"><text x="0" y="0" font-family="Virgil, Segoe UI Emoji" font-size="20px" fill="#1e1e1e" text-anchor="start" style="white-space: pre;" direction="ltr" dominant-baseline="text-before-edge">0</text></g><g transform="translate(146.72583056481653 344.4298874463086) rotate(0 6.879997253417969 12.5)"><text x="0" y="0" font-family="Virgil, Segoe UI Emoji" font-size="20px" fill="#1e1e1e" text-anchor="start" style="white-space: pre;" direction="ltr" dominant-baseline="text-before-edge">0</text></g><g transform="translate(355.2055855576698 392.86234116522223) rotate(0 2.7099990844726562 12.5)"><text x="0" y="0" font-family="Virgil, Segoe UI Emoji" font-size="20px" fill="#1e1e1e" text-anchor="start" style="white-space: pre;" direction="ltr" dominant-baseline="text-before-edge">1</text></g><g transform="translate(154.67465692798396 254.98430559840995) rotate(0 5.9799957275390625 12.5)"><text x="0" y="0" font-family="Virgil, Segoe UI Emoji" font-size="20px" fill="#1e1e1e" text-anchor="start" style="white-space: pre;" direction="ltr" dominant-baseline="text-before-edge">X</text></g><g transform="translate(226.49553205893653 253.69236395620987) rotate(0 5.159996032714844 12.5)"><text x="0" y="0" font-family="Virgil, Segoe UI Emoji" font-size="20px" fill="#1e1e1e" text-anchor="start" style="white-space: pre;" direction="ltr" dominant-baseline="text-before-edge">Y</text></g><g transform="translate(297.41508491627224 250.78727409384533) rotate(0 7.969993591308594 12.5)"><text x="0" y="0" font-family="Virgil, Segoe UI Emoji" font-size="20px" fill="#1e1e1e" text-anchor="start" style="white-space: pre;" direction="ltr" dominant-baseline="text-before-edge">Z</text></g><g transform="translate(355.2055855576698 336.800122418648) rotate(0 20.089981079101562 12.5)"><text x="0" y="0" font-family="Virgil, Segoe UI Emoji" font-size="20px" fill="#1e1e1e" text-anchor="start" style="white-space: pre;" direction="ltr" dominant-baseline="text-before-edge">360</text></g><g stroke-linecap="round"><g transform="translate(177.5738713576684 278.2825968723648) rotate(0 13.453275628045958 0.11947636707679976)"><path d="M-0.95 0.76 C3.76 0.48, 23.23 -0.25, 27.85 -0.63 M0.76 0.11 C5.4 0.54, 23.08 0.99, 27.26 0.85" stroke="#1e1e1e" stroke-width="1" fill="none"></path></g></g><mask></mask><g stroke-linecap="round"><g transform="translate(242.2889768281434 276.7643566473191) rotate(0 18.068063955699472 0.20880971624217182)"><path d="M-0.97 0.85 C5.2 0.63, 30.73 -0.44, 37.11 -0.44 M0.72 0.26 C6.7 0.09, 30.05 0.89, 36.01 0.65" stroke="#1e1e1e" stroke-width="1" fill="none"></path></g></g><mask></mask><g stroke-linecap="round"><g transform="translate(320.4783963674763 274.2496943556364) rotate(0 16.456217068373917 -0.36423482533803053)"><path d="M0.72 -0.03 C6.15 -0.11, 27.89 -0.57, 33.27 -0.61 M-0.36 -1.09 C4.88 -1.05, 27.09 0.06, 32.53 0.36" stroke="#1e1e1e" stroke-width="1" fill="none"></path></g></g><mask></mask><g transform="translate(146.72583056481653 301.9157781037459) rotate(0 6.879997253417969 12.5)"><text x="0" y="0" font-family="Virgil, Segoe UI Emoji" font-size="20px" fill="#1e1e1e" text-anchor="start" style="white-space: pre;" direction="ltr" dominant-baseline="text-before-edge">0</text></g></svg>