<svg version="1.1" xmlns="http://www.w3.org/2000/svg" viewBox="0 0 925.587954945882 455.00930523924376" width="925.587954945882" height="455.00930523924376">
  <!-- svg-source:excalidraw -->
  
  <defs>
    <style class="style-fonts">
      @font-face {
        font-family: "Virgil";
        src: url("https://excalidraw.com/Virgil.woff2");
      }
      @font-face {
        font-family: "Cascadia";
        src: url("https://excalidraw.com/Cascadia.woff2");
      }
    </style>
    
  </defs>
  <rect x="0" y="0" width="925.587954945882" height="455.00930523924376" fill="#ffffff"></rect><g stroke-linecap="round" transform="translate(10 10.990373193528399) rotate(0 331.0432670940066 216.78850093167665)"><path d="M32 0 M32 0 C263.87 1.74, 493.94 1.95, 630.09 0 M32 0 C192.01 0.8, 352.79 0.92, 630.09 0 M630.09 0 C651.59 0.27, 661.52 12.2, 662.09 32 M630.09 0 C649.33 1.96, 659.93 12.55, 662.09 32 M662.09 32 C662.21 122.33, 662.23 209.72, 662.09 401.58 M662.09 32 C664.28 165.21, 663.49 298.64, 662.09 401.58 M662.09 401.58 C662.65 421.99, 649.69 433.03, 630.09 433.58 M662.09 401.58 C660.36 421.69, 652.36 432.55, 630.09 433.58 M630.09 433.58 C481.78 433.38, 333.18 434.07, 32 433.58 M630.09 433.58 C404.39 435.11, 178.58 434.64, 32 433.58 M32 433.58 C12.15 431.76, 1.13 424.29, 0 401.58 M32 433.58 C8.41 433.24, -1.06 424.1, 0 401.58 M0 401.58 C2.16 297.06, 1.57 194.61, 0 32 M0 401.58 C-1 268.47, -0.91 136.16, 0 32 M0 32 C-1.63 9.27, 11.94 -1.66, 32 0 M0 32 C1.94 10.96, 12.09 -2.22, 32 0" stroke="#1e1e1e" stroke-width="1" fill="none"></path></g><g stroke-linecap="round"><g transform="translate(486.54172214664516 10.106575960183932) rotate(0 -0.5106132628283149 217.39807665943795)"><path d="M-0.15 0 C0.52 110.45, 1.88 219.73, -1.61 434.25 M0.47 -0.11 C1.14 116.98, 0.89 233.61, -1.81 434.9" stroke="#1e1e1e" stroke-width="1" fill="none"></path></g></g><mask></mask><g stroke-linecap="round"><g transform="translate(22.802188977176797 318.4332119058688) rotate(0 231.93853239624661 0.5934750072633506)"><path d="M0.6 0.39 C149.62 1.5, 299.98 2.17, 463.11 1.4 M0.35 -0.16 C93.72 -0.81, 186.23 -1.27, 463.53 1.82" stroke="#1e1e1e" stroke-width="1" fill="none"></path></g></g><mask></mask><g stroke-linecap="round"><g transform="translate(539.7337771684871 59.51638040280136) rotate(0 13.760603336330632 -12.050598353367548)"><path d="M0.04 0.18 C8.93 -8.7, 15.1 -14.7, 26.47 -24.68 M0.97 0.58 C8 -8.3, 17.74 -16.01, 27.48 -24.37" stroke="#1e1e1e" stroke-width="1" fill="none"></path></g></g><mask></mask><g stroke-linecap="round"><g transform="translate(485.5015502762616 235.4531282273117) rotate(0 97.90094276089042 -0.9514377554663724)"><path d="M-1.81 -1.57 C59 -1.84, 119.58 -4.06, 197.55 -1.51 M-0.42 0.82 C56.57 0.04, 112.56 -1.39, 197.62 -2.27" stroke="#1e1e1e" stroke-width="1" fill="none"></path></g></g><mask></mask><g transform="translate(545.8281130269366 326.46733198904917) rotate(0 46.739952087402344 12.5)"><text x="0" y="0" font-family="Virgil, Segoe UI Emoji" font-size="20px" fill="#1e1e1e" text-anchor="start" style="white-space: pre;" direction="ltr" dominant-baseline="text-before-edge">CSS Code</text></g><g stroke-linecap="round"><g transform="translate(657.4256883271465 49.62771025146162) rotate(0 46.694845371309384 1.4515759720127903)"><path d="M-0.69 -0.1 C14.98 0.22, 78.37 2.18, 94.08 2.66 M1.14 -1.2 C16.72 -0.76, 78.2 3.22, 93.49 4.11" stroke="#1e1e1e" stroke-width="1" fill="none"></path></g><g transform="translate(657.4256883271465 49.62771025146162) rotate(0 46.694845371309384 1.4515759720127903)"><path d="M64.56 13.76 C73.09 10.5, 82.02 9.31, 92.35 6.09 M65.62 13.59 C72.02 11, 80.06 7.96, 93.78 3.48" stroke="#1e1e1e" stroke-width="1" fill="none"></path></g><g transform="translate(657.4256883271465 49.62771025146162) rotate(0 46.694845371309384 1.4515759720127903)"><path d="M65.81 -6.72 C74.09 -3.79, 82.64 1.24, 92.35 6.09 M66.87 -6.89 C72.99 -4.36, 80.72 -2.27, 93.78 3.48" stroke="#1e1e1e" stroke-width="1" fill="none"></path></g></g><mask></mask><g transform="translate(766.8281130269366 38.46733198904917) rotate(0 74.37992095947266 12.5)"><text x="0" y="0" font-family="Virgil, Segoe UI Emoji" font-size="20px" fill="#1e1e1e" text-anchor="start" style="white-space: pre;" direction="ltr" dominant-baseline="text-before-edge">Animation Name</text></g><g transform="translate(218.82811302693665 371.46733198904917) rotate(0 36.989959716796875 12.5)"><text x="0" y="0" font-family="Virgil, Segoe UI Emoji" font-size="20px" fill="#1e1e1e" text-anchor="start" style="white-space: pre;" direction="ltr" dominant-baseline="text-before-edge">Timeline</text></g><g stroke-linecap="round"><g transform="translate(652.8281130269366 118.46733198904917) rotate(0 46.62897641648533 1.2906001659762296)"><path d="M0.82 0.24 C16.02 0.5, 75.85 1.8, 91.18 2.16 M-0.21 -0.68 C15.37 -0.35, 78.01 2.58, 93.46 3.26" stroke="#1e1e1e" stroke-width="1" fill="none"></path></g><g transform="translate(652.8281130269366 118.46733198904917) rotate(0 46.62897641648533 1.2906001659762296)"><path d="M65.24 10.87 C72 10.72, 81.02 8.16, 94.72 1.34 M65.11 12.06 C73.42 9.87, 83.08 6.39, 93.69 4.16" stroke="#1e1e1e" stroke-width="1" fill="none"></path></g><g transform="translate(652.8281130269366 118.46733198904917) rotate(0 46.62897641648533 1.2906001659762296)"><path d="M66.17 -9.63 C72.76 -3.61, 81.5 0, 94.72 1.34 M66.04 -8.44 C74.25 -3.98, 83.6 -0.79, 93.69 4.16" stroke="#1e1e1e" stroke-width="1" fill="none"></path></g></g><mask></mask><g transform="translate(774.8281130269366 115.46733198904917) rotate(0 49.88993835449219 12.5)"><text x="0" y="0" font-family="Virgil, Segoe UI Emoji" font-size="20px" fill="#1e1e1e" text-anchor="start" style="white-space: pre;" direction="ltr" dominant-baseline="text-before-edge">Properties</text></g><g stroke-linecap="round" transform="translate(198.8772309434504 154.93661302683336) rotate(0 72.4120113820714 28.652972800175576)"><path d="M14.33 0 M14.33 0 C38.02 -0.78, 64.18 0.41, 130.5 0 M14.33 0 C52.13 0.61, 91.26 0.67, 130.5 0 M130.5 0 C139.75 1.36, 144.42 5.6, 144.82 14.33 M130.5 0 C141.46 0.37, 146.32 4.76, 144.82 14.33 M144.82 14.33 C146.38 22.15, 143.67 25.02, 144.82 42.98 M144.82 14.33 C144.78 24.24, 145.31 34.93, 144.82 42.98 M144.82 42.98 C145.78 50.6, 138.77 56.03, 130.5 57.31 M144.82 42.98 C145.77 50.37, 139.09 58.25, 130.5 57.31 M130.5 57.31 C84.43 57.75, 40.63 59.92, 14.33 57.31 M130.5 57.31 C83.64 58.33, 39.23 57.68, 14.33 57.31 M14.33 57.31 C6.77 57.76, -1.28 50.96, 0 42.98 M14.33 57.31 C3.11 57.59, -0.01 50.73, 0 42.98 M0 42.98 C-0.3 32.35, 0.24 22.12, 0 14.33 M0 42.98 C0.15 31.67, -0.2 19.79, 0 14.33 M0 14.33 C-1.97 5.86, 4.24 0.71, 14.33 0 M0 14.33 C-1.47 5.76, 2.88 -0.48, 14.33 0" stroke="#1e1e1e" stroke-width="1" fill="none"></path></g><g stroke-linecap="round"><g transform="translate(201.76150024225433 159.1919774285809) rotate(0 67.74782835950657 23.598034053649712)"><path d="M-0.66 -1.18 C22.03 6.69, 113.39 39.05, 136.16 47.01 M1.19 0.81 C23.78 8.88, 113.18 40.6, 135.55 48.38" stroke="#1e1e1e" stroke-width="1" fill="none"></path></g></g><mask></mask><g stroke-linecap="round"><g transform="translate(202.56529837509527 209.7365510210468) rotate(0 66.76023818019212 -26.05338273948712)"><path d="M-1.09 -0.27 C21.44 -9.07, 111.89 -43.49, 134.61 -51.83 M0.54 -1.46 C22.96 -10.23, 111.28 -42.39, 133.66 -50.9" stroke="#1e1e1e" stroke-width="1" fill="none"></path></g></g><mask></mask><g stroke-linecap="round" transform="translate(507.597988143306 40.600364482091436) rotate(0 69.953374092339 11.584120984556876)"><path d="M-1.69 -0.22 C32.77 -1.44, 62.23 -2.01, 138.24 -0.82 M-0.71 -0.22 C30.31 0.39, 60.39 0.92, 139.64 0.61 M139.25 -0.63 C138.75 9.17, 139.05 15.59, 139.03 21.99 M139.07 -0.67 C139.29 5.79, 139.45 10.79, 139.13 22.41 M140.48 22.15 C96.89 23.08, 52.31 23.61, 1.74 22.99 M139.08 22.27 C104.11 21.67, 67.17 22.07, 0.89 22.18 M-1.02 23.63 C-0.97 17.96, -1.6 14, -0.26 0.43 M0.1 22.69 C0.53 17.61, 0.05 13.03, 0.32 0.3" stroke="#1e1e1e" stroke-width="1" fill="none"></path></g><g stroke-linecap="round"><g transform="translate(508.82732271632165 52.98832341986258) rotate(0 6.905138758322892 -5.242986417857139)"><path d="M0.55 1.37 C2.6 -3.22, 8.39 -8.47, 12.99 -11.54 M-0.05 -0.89 C4.22 -4.26, 7.45 -7.09, 13.86 -11.86" stroke="#1e1e1e" stroke-width="1" fill="none"></path></g></g><mask></mask><g stroke-linecap="round"><g transform="translate(516.3924291444499 59.41870848259009) rotate(0 11.400400875041441 -9.953688488221701)"><path d="M1.5 0.16 C5.26 -5.23, 14.67 -11.01, 20.74 -19.43 M-0.79 -0.59 C8.03 -7.08, 17.19 -14.77, 23.59 -20.07" stroke="#1e1e1e" stroke-width="1" fill="none"></path></g></g><mask></mask><g stroke-linecap="round"><g transform="translate(557.7639496238186 63.43766729049571) rotate(0 11.95251267152139 -10.54773533630049)"><path d="M1.69 0.34 C8.04 -6.24, 15.38 -12.98, 22.16 -21.45 M0.12 0.57 C9.25 -7.8, 16.25 -15.35, 23.78 -21.67" stroke="#1e1e1e" stroke-width="1" fill="none"></path></g></g><mask></mask><g stroke-linecap="round"><g transform="translate(583.0597622967599 61.92463644798022) rotate(0 9.88875815556969 -9.62549333344316)"><path d="M-0.35 -1.04 C4.43 -4.31, 6.07 -9.89, 20.13 -19.85 M0.23 0.6 C6.21 -7.7, 11.96 -14.21, 18.51 -19.82" stroke="#1e1e1e" stroke-width="1" fill="none"></path></g></g><mask></mask><g stroke-linecap="round"><g transform="translate(599.4192460134342 66.18003270602662) rotate(0 9.586597084097662 -11.961930453427897)"><path d="M1.33 -0.9 C4.73 -5.82, 7.83 -11.32, 18.67 -22.88 M0.31 -0.87 C4.02 -4.59, 7.7 -9.13, 18.87 -23.05" stroke="#1e1e1e" stroke-width="1" fill="none"></path></g></g><mask></mask><g stroke-linecap="round"><g transform="translate(620.7433427696795 63.48492610985454) rotate(0 8.963104061780086 -10.156177201896242)"><path d="M0.48 1.69 C3.67 -4.72, 9.22 -12.33, 18.11 -21.98 M-0.22 0.68 C7.56 -7.83, 12.84 -15.48, 18.14 -22" stroke="#1e1e1e" stroke-width="1" fill="none"></path></g></g><mask></mask><g stroke-linecap="round"><g transform="translate(637.0554880262476 61.78276442100628) rotate(0 3.890012643307273 -4.491705171290789)"><path d="M1.05 0.09 C1.95 -2.12, 4.71 -5.91, 7.9 -8.09 M-0.12 -0.51 C2.7 -2.7, 4.44 -5.05, 7.66 -9.08" stroke="#1e1e1e" stroke-width="1" fill="none"></path></g></g><mask></mask><g stroke-linecap="round" transform="translate(508.45667875894026 91.02699930229778) rotate(0 46.73803258536043 7.739712788325278)"><path d="M1.24 1.83 C18.99 -0.55, 40.55 -2.6, 92.36 0.88 M0.54 -0.94 C20.89 0.53, 40.53 0.43, 94.17 -0.09 M94.59 -0.51 C93.88 2.94, 93.98 7.93, 94.5 17 M93.9 -0.54 C92.66 4.09, 93.79 7.41, 94.09 15.61 M91.61 17.45 C65.16 15.56, 39.09 16.14, -1.07 16.41 M94.06 15.81 C73.37 14.66, 51.86 15.75, -0.59 16.16 M0.59 14.68 C-0.42 10.95, 1.45 8.59, 0.44 -1.41 M-0.37 15.82 C0 11.27, -0.64 7.11, -0.1 0.58" stroke="#1e1e1e" stroke-width="1" fill="none"></path></g><g stroke-linecap="round"><g transform="translate(509.27803555662774 99.30378131620614) rotate(0 4.43739746380453 -4.670238941971093)"><path d="M1.13 -0.87 C2.23 -2.31, 3.19 -4.96, 9.45 -9.42 M-0.58 0.08 C3.08 -3.69, 6.23 -5.71, 8.85 -8.76" stroke="#1e1e1e" stroke-width="1" fill="none"></path></g></g><mask></mask><g stroke-linecap="round"><g transform="translate(514.3325192800695 103.60012227899438) rotate(0 6.638304823929957 -6.572662147342726)"><path d="M-1.41 0.11 C5.3 -6.9, 10.05 -8.91, 13.61 -11.83 M0.14 -0.31 C2.13 -3, 6.98 -5.41, 14.68 -13.26" stroke="#1e1e1e" stroke-width="1" fill="none"></path></g></g><mask></mask><g stroke-linecap="round"><g transform="translate(541.9741233822284 106.28531409654966) rotate(0 8.222483424511779 -8.289415542666916)"><path d="M0.11 -0.24 C3.57 -6.27, 12.03 -11.97, 16.76 -16.34 M-0.31 -0.98 C5.25 -4.48, 11.08 -10.8, 15.33 -13.76" stroke="#1e1e1e" stroke-width="1" fill="none"></path></g></g><mask></mask><g stroke-linecap="round"><g transform="translate(558.875045350917 105.27441096660482) rotate(0 6.161097217209317 -6.696262570212184)"><path d="M-0.22 -1.79 C3.96 -4.54, 8.45 -9.62, 10.83 -12.67 M-0.91 -0.38 C3.2 -2.87, 4.69 -5.82, 13.23 -13.01" stroke="#1e1e1e" stroke-width="1" fill="none"></path></g></g><mask></mask><g stroke-linecap="round"><g transform="translate(569.8053270271133 108.11757402418175) rotate(0 5.9995569569263125 -7.971907342659733)"><path d="M-1.89 -1.09 C3.8 -4.9, 7.04 -8.54, 13.89 -16.62 M-0.4 0.68 C3.98 -4.98, 7.86 -8.39, 13.53 -15.11" stroke="#1e1e1e" stroke-width="1" fill="none"></path></g></g><mask></mask><g stroke-linecap="round"><g transform="translate(584.0526216283885 106.31688918878513) rotate(0 5.2203231936608745 -6.633560114371562)"><path d="M-1.04 0.82 C2.17 -3.17, 5.54 -7.64, 10.04 -14.09 M0.64 -0.09 C2.86 -4.03, 7.19 -6.99, 11.48 -14.08" stroke="#1e1e1e" stroke-width="1" fill="none"></path></g></g><mask></mask><g stroke-linecap="round"><g transform="translate(594.9512750018804 105.17962183733539) rotate(0 2.5644813637757125 -3.1033052156578833)"><path d="M0.34 -0.6 C1.97 -2.33, 3.39 -4.02, 5.16 -6.02 M-0.04 -0.18 C0.95 -0.91, 2.34 -2.5, 5.16 -6.02" stroke="#1e1e1e" stroke-width="1" fill="none"></path></g></g><mask></mask><g stroke-linecap="round" transform="translate(510.2295984404967 134.73908685261335) rotate(0 46.73803258536043 7.739712788325278)"><path d="M0.99 -1.81 C21.26 1.22, 47.66 1.77, 93.11 0.21 M0.21 0.21 C31.81 -0.27, 62.42 -0.2, 94.37 -0.74 M92.73 1.23 C94.98 4.39, 93.46 11.27, 93.78 14.16 M92.92 -0.08 C93.03 4.73, 93.08 8.65, 93.99 15.47 M92.97 16.95 C58.74 14.19, 27.94 15.54, -1.51 14.02 M94.18 15.82 C62.24 15.97, 31.5 15.94, 0.13 14.75 M-0.69 15.93 C-1.07 10.38, 1.47 4.29, 1.14 1.42 M-0.13 15.53 C0.27 11.49, 0.78 7.64, 0.25 0.57" stroke="#1e1e1e" stroke-width="1" fill="none"></path></g><g stroke-linecap="round"><g transform="translate(511.0509552381842 143.0158688665217) rotate(0 3.963370102207591 -3.8605138164660957)"><path d="M-1.11 -1.17 C3.95 -2.46, 7.68 -6.71, 9.04 -8.09 M0.13 0.55 C1.57 -1.66, 3.72 -3.46, 8.45 -8.27" stroke="#1e1e1e" stroke-width="1" fill="none"></path></g></g><mask></mask><g stroke-linecap="round"><g transform="translate(516.1054389616262 147.31220982930995) rotate(0 6.935601410757158 -6.72180544295486)"><path d="M-1.91 0.85 C5.21 -1.86, 7.49 -6.45, 15.78 -14.3 M0.89 -0.96 C4 -3.87, 7.75 -6.68, 15.49 -12.24" stroke="#1e1e1e" stroke-width="1" fill="none"></path></g></g><mask></mask><g stroke-linecap="round"><g transform="translate(543.7470430637849 149.99740164686523) rotate(0 7.694538032212336 -7.337139107917551)"><path d="M0.86 1.32 C6.98 -5.3, 11.22 -9.39, 14.29 -15.99 M-0.96 0.58 C4.09 -3.91, 9.23 -9.15, 16.35 -14.8" stroke="#1e1e1e" stroke-width="1" fill="none"></path></g></g><mask></mask><g stroke-linecap="round"><g transform="translate(560.6479650324735 148.9864985169204) rotate(0 6.398379715606097 -6.411941428068417)"><path d="M1.22 1.3 C2.41 -2.73, 5.95 -6.98, 11.16 -13.29 M0.54 -0.82 C4.72 -4.96, 8.21 -7.94, 12.26 -14.13" stroke="#1e1e1e" stroke-width="1" fill="none"></path></g></g><mask></mask><g stroke-linecap="round"><g transform="translate(571.5782467086698 151.82966157449732) rotate(0 6.187332425212844 -6.749878097194596)"><path d="M1.38 -0.36 C2.76 -2.51, 3.93 -7.56, 13.24 -14.37 M-0.86 0.87 C4.4 -5.51, 10.88 -11.85, 12.35 -14.01" stroke="#1e1e1e" stroke-width="1" fill="none"></path></g></g><mask></mask><g stroke-linecap="round"><g transform="translate(585.8255413099452 150.0289767391007) rotate(0 6.0902345096782255 -6.65889783887485)"><path d="M-0.34 0.19 C4.52 -6.19, 6.63 -9.52, 12.17 -12.69 M0.83 -0.69 C2.62 -2.11, 4.48 -6.2, 12.52 -13.51" stroke="#1e1e1e" stroke-width="1" fill="none"></path></g></g><mask></mask><g stroke-linecap="round"><g transform="translate(596.7241946834373 148.89170938765096) rotate(0 2.726338288593979 -3.1400848640053027)"><path d="M0.08 0.24 C1.32 -2.67, 3.82 -4.06, 5.74 -6.52 M-0.29 0.12 C2.16 -2.22, 3.49 -3.88, 5.4 -5.97" stroke="#1e1e1e" stroke-width="1" fill="none"></path></g></g><mask></mask></svg>